<?xml version="1.0" encoding="UTF-8"?>
<svg id="Layer_2" data-name="Layer 2" xmlns="http://www.w3.org/2000/svg" viewBox="0 0 800 513">
  <defs>
    <style>
      .cls-1 {
        fill: #360d36;
      }
    </style>
  </defs>
  <g id="Capa_1" data-name="Capa 1">
    <path class="cls-1" d="M782.88,513c-6.87,0-13.17-3.93-15.86-10.38h0c-1.98-4.68-51.46-115.67-236.47-137.65-38.54-4.68-84.69-7.08-140.74-7.5v138.34c0,6.39-3.45,12.18-9.12,15.23-5.64,2.94-12.39,2.52-17.63-.99L7.62,270.8c-4.8-3.21-7.62-8.61-7.62-14.27s2.82-10.95,7.62-14.31L363.2,2.94c5.25-3.63,11.94-3.87,17.63-.87,5.7,3.06,9.09,8.85,9.09,15.05V145.87c77.31,10.08,410.08,69.88,410.08,350.1,0,8.13-5.73,15.23-13.77,16.85-1.11,.18-2.28,.18-3.36,.18Z"/>
  </g>
</svg>