<?xml version="1.0" encoding="UTF-8"?>
<svg id="Layer_2" data-name="Layer 2" xmlns="http://www.w3.org/2000/svg" viewBox="0 0 145.6 50.03">
  <defs>
    <style>
      .cls-1 {
        fill: #e2e8f0;
      }

      .cls-2 {
        fill: #8bc541;
      }

      .cls-3 {
        fill: #f69220;
      }
    </style>
  </defs>
  <g id="Layer_1-2" data-name="Layer 1">
    <g>
      <g>
        <path class="cls-2" d="M13.5,0c-2.6,4.5-1.1,10.2,3.4,12.9,2.6-4.5,1.1-10.3-3.4-12.9Z"/>
        <path class="cls-2" d="M18.3,12.6c3.5,.1,6.4-2.6,6.6-6.1-3.6-.2-6.5,2.6-6.6,6.1Z"/>
      </g>
      <g>
        <path class="cls-3" d="M2.4,36.4c-.3,.3-.6,.5-1,.4-.6-.1-.9-.7-.7-1.2s.7-.8,1.3-.6c.1,0,.2,.1,.3,.1h0c.2,.4,.3,.9,.1,1.3h0Z"/>
        <path class="cls-3" d="M32.8,36c0-.1,.1-.1,0,0,.3-.3,.7-.5,1.1-.4,.5,.2,.8,.7,.6,1.2-.1,.5-.7,.7-1.1,.6-.5-.1-.8-.6-.6-1.1,0-.1,0-.2,0-.3Z"/>
        <path class="cls-3" d="M31.6,25.3c-.3-.3-.6-.6-.4-1.1,.1-.5,.6-.8,1.2-.6,.5,.1,.8,.7,.6,1.2-.1,.5-.6,.7-1.1,.6-.1,0-.2-.1-.3-.1h0Z"/>
        <path class="cls-3" d="M18.4,50c-.5,0-.9-.4-.9-.9s.4-.9,.9-.9,.9,.4,.9,.9-.4,.9-.9,.9Z"/>
        <path class="cls-3" d="M20.6,48.1h0c.2-.1,.3-.3,.5-.3,.4-.1,.8,.1,1,.4s.1,.8-.2,1.1c-.3,.3-.7,.3-1.1,.2-.4-.2-.5-.6-.4-1,.1-.2,.2-.3,.2-.4Z"/>
        <path class="cls-3" d="M15.2,16c0,.5-.4,.9-.9,.9s-.9-.4-.9-.9,.4-.9,.9-.9c.6,0,.9,.4,.9,.9Z"/>
        <path class="cls-3" d="M18.3,15.6c0,.5-.4,.9-.9,.9s-.9-.4-.9-.9,.4-.9,.9-.9,.9,.4,.9,.9Z"/>
        <path class="cls-3" d="M34.2,29.7c-.5,0-.9-.4-.9-.9s.4-.9,.9-.9,.9,.4,.9,1c-.1,.5-.5,.8-.9,.8Z"/>
        <path class="cls-3" d="M35.3,31.8c0,.5-.3,.9-.8,.9s-.9-.3-.9-.8,.3-.9,.9-1c.5,0,.8,.3,.8,.9Z"/>
        <path class="cls-3" d="M8.2,45.8c0,.5-.4,.9-.9,.9-.4,0-.9-.5-.9-.9,0-.5,.4-.9,.9-.9s.9,.4,.9,.9Z"/>
        <path class="cls-3" d="M5.2,21.8c0,.4-.2,.7-.6,.8-.4,.1-.7,0-.9-.2-.3-.3-.3-.5,0-.8,.1-.1,.2-.2,.2-.3,.2-.3,.4-.4,.8-.3,.3,.2,.5,.5,.5,.8Z"/>
        <path class="cls-3" d="M1.9,38c.5,0,.9,.4,.9,.9s-.4,.9-.9,.9h-.1c-.3,0-.8-.8-.7-1.2,0-.3,.4-.6,.8-.6Z"/>
        <path class="cls-3" d="M6.5,44.5c0,.4-.3,.8-.7,.8-.1,0-.3,0-.4-.1-.2-.2-.4-.4-.6-.6-.1-.1-.1-.2-.1-.3,0-.4,.5-.8,.9-.7,.5,.1,.9,.5,.9,.9Z"/>
        <path class="cls-3" d="M.1,30.1c0-.8,.3-1.2,.7-1.1,.5,0,.8,.5,.8,.9,0,.5-.4,.9-.9,.8-.3,0-.6-.3-.6-.6Z"/>
        <path class="cls-3" d="M9.8,47.3c-.1,.1-.2,.3-.4,.5-.1,.1-.3,.1-.4,0-.3-.3-.9-.3-.9-.8,0-.4,.4-.8,.9-.8,.5,.1,.9,.5,.8,1.1Z"/>
        <path class="cls-3" d="M3.9,23.5c0,.7-.7,1.1-1.3,.7-.4-.2-.4-.5-.2-.8,.1-.1,.1-.2,.2-.4,.2-.2,.3-.6,.7-.4,.4,.2,.7,.5,.6,.9Z"/>
        <path class="cls-3" d="M15.4,48.6c.5,0,.9,.4,.9,.9,0,.4-.2,.6-.7,.5-.2,0-.4,0-.6-.1-.5-.1-.6-.3-.5-.7,.2-.4,.5-.6,.9-.6Z"/>
        <path class="cls-3" d="M5.6,20.9c-.1-.1-.3-.2-.5-.4-.2-.2-.2-.4,0-.6,.1-.1,.3-.3,.4-.4,.2-.2,.3-.4,.6-.3,.3,.2,.5,.4,.5,.8,0,.5-.4,1-1,.9Z"/>
        <path class="cls-3" d="M23.6,48.3c0-.3,.2-.6,.5-.7,.3-.2,.6-.1,.9,.1,.4,.3,.4,.7-.1,1-.2,.1-.3,.1-.5,.2-.6,.1-.8-.1-.8-.6Z"/>
        <path class="cls-3" d="M30.5,43c0-.6,.5-1,1.1-.9,.5,.1,.6,.4,.3,.8-.1,.2-.2,.3-.3,.5-.1,.1-.3,.3-.4,.3-.2-.1-.4-.3-.5-.5-.2,0-.2-.2-.2-.2Z"/>
        <path class="cls-3" d="M12.2,16.4c0,.4-.3,.7-.7,.8-.4,.1-.8-.1-.9-.5-.1-.3-.1-.5,.2-.6,.2-.1,.4-.2,.6-.2,.5-.2,.8,0,.8,.5Z"/>
        <path class="cls-3" d="M28.5,19.7c-.7,0-1.1-.6-.8-1.2,.2-.4,.4-.4,.7-.2,.2,.1,.4,.3,.6,.5,.4,.3,.3,.6-.1,.8-.2,.1-.4,.1-.4,.1Z"/>
        <path class="cls-3" d="M29.2,44.6c0-.4,.2-.7,.5-.8,.3-.1,.6-.1,.9,.2,.2,.2,.2,.3,0,.5s-.4,.4-.6,.6c-.1,.1-.3,.3-.4,.2-.2-.1-.3-.3-.4-.5v-.2Z"/>
        <path class="cls-3" d="M31.7,41.1c.2-.2,.3-.5,.5-.6s.6-.1,.8,0c.2,0,.3,.2,.1,.4-.2,.3-.3,.5-.5,.8s-.4,.4-.7,.1c0-.2,0-.4-.2-.7Z"/>
        <path class="cls-3" d="M20.3,16.1c-.4,0-.7-.2-.8-.5-.1-.5,0-.7,.5-.6,.2,0,.5,.1,.7,.1,.4,.1,.5,.3,.3,.6-.1,.2-.3,.4-.7,.4Z"/>
        <path class="cls-3" d="M34.1,34.8c0-.3,.1-.6,.4-.7,.2-.1,.4-.1,.6,0,.1,0,.1,.3,.1,.5,0,.3-.1,.5-.1,.8s-.2,.3-.5,.3c-.3-.2-.5-.5-.5-.9Z"/>
        <path class="cls-3" d="M4.8,43.3s0,.2-.1,.3c-.2,.3-.4,.4-.6,.1-.2-.2-.4-.5-.6-.7-.2-.2-.1-.4,.1-.4,.3-.1,.6-.1,.8,0,.3,0,.4,.3,.4,.7Z"/>
        <path class="cls-3" d="M11.5,48.5c0,.4-.1,.5-.5,.3-.3-.1-.5-.3-.8-.4s-.3-.3-.1-.5c.2-.3,.6-.4,.9-.3,.3,.2,.5,.5,.5,.9Z"/>
        <path class="cls-3" d="M26.8,18.3c-.7,0-1.1-.6-.8-1.1,.1-.2,.2-.3,.4-.1,.3,.2,.5,.3,.8,.5,.4,.3,.4,.5-.1,.7h-.3Z"/>
        <path class="cls-3" d="M30.1,21c-.3,0-.6-.2-.7-.5-.1-.3,0-.6,.1-.8,.1-.2,.3-.2,.4,0,.2,.2,.4,.4,.6,.6,.1,.1,.2,.3,.2,.4-.1,.1-.3,.2-.4,.3h-.2Z"/>
        <path class="cls-3" d="M33.9,26.6c-.4,0-.7-.2-.8-.5-.1-.3,0-.7,.3-.9,.2-.1,.3-.2,.4,.1,.1,.3,.3,.6,.4,.9s0,.4-.3,.4Z"/>
        <path class="cls-3" d="M2.5,25c0,.5-.2,.8-.5,.9-.2,.1-.4,0-.6,0,0-.2,0-.3,.1-.5s.2-.4,.3-.6c.2-.3,.3-.4,.6-.1,0,.1,.1,.3,.1,.3Z"/>
        <path class="cls-3" d="M7.6,17.9c.3,.4,.3,.8,0,1.1-.3,.3-.7,.3-1,.1-.2-.1-.2-.2,0-.4,.3-.3,.6-.5,1-.8Z"/>
        <path class="cls-3" d="M28.1,46.7c-.3-.4-.3-.7,0-1,.2-.2,.5-.3,.9-.2,.2,.1,.3,.2,.1,.4-.3,.3-.6,.5-1,.8Z"/>
        <path class="cls-3" d="M25.6,16.6c-.3,.3-.5,.4-.8,.3s-.5-.4-.5-.7c0,0,.1-.2,.2-.1,.3,.2,.7,.3,1.1,.5Z"/>
        <path class="cls-3" d="M31.2,21c.3,.4,.6,.7,.9,1.1-.4,.3-.6,.1-.9-.1s-.3-.5,0-1Z"/>
        <path class="cls-3" d="M33.6,40.1c-.3-.3-.4-.5-.3-.8,.1-.4,.4-.5,.9-.6-.2,.5-.4,1-.6,1.4Z"/>
        <path class="cls-3" d="M0,33.9c.6,.3,.7,.8,.2,1.3-.1-.5-.1-.9-.2-1.3Z"/>
        <path class="cls-3" d="M20.5,49.9c-.3,0-.6,.1-.9,.1q0-.1-.1-.2c.2-.1,.3-.2,.5-.2s.3,.1,.5,.1v.2Z"/>
        <path class="cls-3" d="M2.3,41.3c.5,.1,.7,.3,.6,.9-.2-.4-.4-.7-.6-.9Z"/>
        <path class="cls-3" d="M.7,27.5c.1-.3,.2-.6,.3-1,.2,.5,.2,.8-.3,1Z"/>
        <path class="cls-3" d="M12.8,49.5c-.2-.1-.4-.1-.6-.2v-.2c.2,.1,.4,.1,.7,.2,0,0,0,.1-.1,.2Z"/>
        <path class="cls-3" d="M.8,37.7c0-.2-.1-.4-.1-.5h.1c.1,.2,.1,.4,.2,.5h-.2Z"/>
        <path class="cls-3" d="M28.4,25.7c.4,.4,.5,.8,.3,1.4-.3,.2-.5,.5-.9,.4-.6-.1-1-.6-.9-1.1,.1-.6,.6-.9,1.2-.8,.1,.1,.2,.1,.3,.1Z"/>
        <path class="cls-3" d="M6.8,28.3c.5,0,.9,.4,.9,.9s-.4,.9-.9,.9-.9-.4-.9-.9,.4-.9,.9-.9Z"/>
        <path class="cls-3" d="M14.6,42.5c.5,0,.9,.4,.9,.9s-.4,.9-.9,.9-.9-.4-.9-.9c.1-.5,.5-.9,.9-.9Z"/>
        <path class="cls-3" d="M8.8,38.2c0,.5-.4,.9-.9,.9s-.9-.4-.9-.9,.4-.9,.9-.9c.5,0,.9,.4,.9,.9Z"/>
        <path class="cls-3" d="M27,25.2c0,.5-.4,.9-.9,.8-.5,0-.9-.4-.8-.9,0-.5,.4-.9,.9-.8,.5,.1,.8,.4,.8,.9Z"/>
        <path class="cls-3" d="M22.8,23.4c-.5,0-.9-.4-.9-.8,0-.5,.4-.9,.9-.9s.8,.4,.8,.8c0,.5-.4,.9-.8,.9Z"/>
        <path class="cls-3" d="M25.8,40.7c0,.5-.4,.8-.9,.8s-.8-.4-.8-.9,.4-.8,.9-.8c.4,0,.8,.4,.8,.9Z"/>
        <path class="cls-3" d="M28.4,37.3c0,.5-.4,.8-.8,.8-.5,0-.9-.4-.9-.9s.4-.8,.8-.8c.6,0,.9,.4,.9,.9Z"/>
        <path class="cls-3" d="M29,29.5c0,.5-.4,.8-.8,.8-.5,0-.8-.4-.8-.8s.4-.8,.8-.8,.8,.4,.8,.8Z"/>
        <path class="cls-3" d="M11.5,24.1c0,.4-.4,.8-.8,.8-.5,0-.8-.4-.8-.8s.4-.8,.8-.8c.5,0,.8,.3,.8,.8Z"/>
        <path class="cls-3" d="M24.5,24.8c-.5,0-.8-.4-.8-.8s.4-.8,.8-.8c.5,0,.8,.4,.8,.8s-.4,.8-.8,.8Z"/>
        <path class="cls-3" d="M29.4,32.6c0,.5-.4,.8-.8,.8s-.8-.4-.8-.8c0-.5,.4-.8,.8-.8,.4-.1,.8,.3,.8,.8Z"/>
        <path class="cls-3" d="M27.1,38.9c0,.4-.4,.8-.8,.8s-.8-.4-.8-.8,.4-.8,.8-.8,.8,.4,.8,.8Z"/>
        <path class="cls-3" d="M8.9,27.4c0,.4-.4,.8-.8,.8s-.8-.4-.8-.8,.4-.8,.8-.8c.5,0,.8,.4,.8,.8Z"/>
        <path class="cls-3" d="M18.1,22.5c-.4,0-.8-.4-.8-.8s.4-.8,.8-.8,.8,.4,.8,.8-.4,.8-.8,.8Z"/>
        <circle class="cls-3" cx="9.6" cy="39.5" r=".8"/>
        <path class="cls-3" d="M13.8,42.1c0,.4-.4,.8-.8,.8s-.8-.4-.8-.8,.4-.8,.8-.8c.4,0,.8,.4,.8,.8Z"/>
        <path class="cls-3" d="M11.3,40.1c.4,0,.7,.4,.7,.8s-.4,.7-.8,.7-.7-.4-.7-.8,.3-.8,.8-.7Z"/>
        <path class="cls-3" d="M21.4,42.7c0,.4-.3,.8-.8,.8-.4,0-.8-.3-.8-.8,0-.4,.3-.8,.8-.8,.5,0,.8,.4,.8,.8Z"/>
        <path class="cls-3" d="M18.5,43.1c0,.4-.4,.8-.8,.8s-.8-.4-.7-.8c0-.4,.4-.8,.8-.8,.3,0,.7,.4,.7,.8Z"/>
        <path class="cls-3" d="M15.9,22c0,.4-.3,.8-.8,.8-.4,0-.8-.3-.8-.8,0-.4,.3-.8,.8-.8,.4,0,.8,.4,.8,.8Z"/>
        <path class="cls-3" d="M9.4,26.5c-.4,0-.8-.3-.8-.7,0-.5,.3-.8,.8-.8,.4,0,.8,.3,.8,.8,0,.4-.3,.7-.8,.7Z"/>
        <path class="cls-3" d="M7.2,32.9c-.4,0-.8-.3-.8-.8,0-.4,.3-.7,.8-.7,.4,0,.8,.3,.8,.8-.1,.3-.4,.7-.8,.7Z"/>
        <path class="cls-3" d="M7.5,35.9c-.4,0-.8-.4-.8-.8s.4-.7,.8-.7,.8,.4,.8,.8-.4,.7-.8,.7Z"/>
        <path class="cls-3" d="M27.2,34.8c-.3,0-.6-.3-.6-.6s.3-.6,.6-.6,.6,.3,.6,.6c0,.4-.2,.6-.6,.6Z"/>
        <path class="cls-3" d="M19.8,23.6c-.3,0-.6-.3-.6-.6s.3-.6,.6-.6,.6,.3,.6,.6-.3,.6-.6,.6Z"/>
        <path class="cls-3" d="M27.2,28.2c0,.4-.3,.6-.6,.6-.4,0-.6-.3-.6-.6s.3-.6,.6-.6,.5,.3,.6,.6Z"/>
        <path class="cls-3" d="M22,40.4c.3,0,.6,.3,.6,.6s-.3,.6-.6,.6-.6-.3-.6-.6c0-.3,.3-.6,.6-.6Z"/>
        <path class="cls-3" d="M13.7,24.3c-.3,0-.6-.3-.5-.6,0-.3,.3-.6,.6-.5,.3,0,.5,.3,.5,.6,0,.2-.3,.5-.6,.5Z"/>
        <path class="cls-3" d="M15.9,42.3c-.3,0-.5-.2-.5-.5s.2-.6,.5-.6,.6,.2,.5,.5c.1,.3-.2,.6-.5,.6Z"/>
        <path class="cls-3" d="M9.7,36.4c0,.3-.2,.5-.5,.5s-.5-.2-.5-.5,.2-.5,.5-.5,.5,.2,.5,.5Z"/>
        <path class="cls-3" d="M26.9,31.8c-.3,0-.5-.3-.5-.5,0-.3,.3-.5,.5-.5,.3,0,.5,.3,.5,.5,0,.3-.2,.5-.5,.5Z"/>
        <path class="cls-3" d="M9,30.4c0,.3-.2,.5-.5,.5s-.5-.3-.5-.5c0-.3,.2-.5,.5-.5s.5,.3,.5,.5Z"/>
        <path class="cls-3" d="M16.8,23.8c-.3,0-.5-.2-.5-.5s.2-.5,.5-.5,.4,.2,.5,.4c-.1,.4-.2,.6-.5,.6Z"/>
        <path class="cls-3" d="M26.1,36.4c-.4-.1-.6-.2-.6-.5s.2-.4,.4-.4c.3,0,.5,.2,.4,.5,0,.2-.2,.3-.2,.4Z"/>
        <path class="cls-3" d="M19.4,41.3c0,.3-.2,.5-.5,.5s-.5-.2-.4-.5c0-.3,.2-.4,.4-.4,.3,0,.5,.2,.5,.4Z"/>
        <path class="cls-3" d="M21.5,23.8c.1,.2,.3,.3,.3,.5,.1,.2-.2,.5-.4,.4-.3,0-.5-.2-.4-.4,0-.2,.2-.3,.3-.5h.2Z"/>
        <path class="cls-3" d="M25.3,26.9c0,.3-.2,.5-.5,.5s-.4-.2-.4-.5,.2-.4,.4-.4c.3-.1,.4,.1,.5,.4Z"/>
        <path class="cls-3" d="M23.8,39.4c-.2,.1-.3,.3-.5,.3-.1,0-.4-.2-.4-.4,0-.3,.2-.4,.4-.4s.3,.2,.5,.3v.2Z"/>
        <path class="cls-3" d="M8.9,33c.1,.2,.3,.3,.3,.5,0,.3-.2,.5-.4,.4-.2,0-.4-.3-.4-.4,0-.2,.2-.3,.3-.5h.2Z"/>
        <path class="cls-3" d="M12.9,25.5c-.1,.1-.3,.3-.4,.3-.2,0-.4-.1-.4-.4s.2-.4,.4-.4,.3,.2,.4,.3v.2Z"/>
        <path class="cls-3" d="M23.6,25.7c-.1,.1-.3,.3-.4,.3-.2,0-.4-.1-.4-.4,0-.1,.2-.3,.4-.3,.1,0,.3,.2,.4,.3v.1Z"/>
        <path class="cls-3" d="M10.2,28.9c-.1,.1-.3,.3-.4,.3s-.3-.2-.3-.4c0-.1,.2-.3,.3-.3s.3,.2,.4,.3c0-.1,0,0,0,.1Z"/>
        <path class="cls-3" d="M14.7,40.5c-.1,.1-.3,.3-.4,.3s-.3-.2-.4-.4c.1-.1,.2-.3,.4-.3,.1,0,.3,.2,.4,.3v.1Z"/>
        <path class="cls-3" d="M25.1,37.7c-.1,.1-.3,.3-.4,.3s-.4-.2-.3-.4c0-.1,.2-.3,.4-.3,.1,0,.3,.2,.4,.3-.1,0-.1,.1-.1,.1Z"/>
        <path class="cls-3" d="M11.5,37.8c-.3,.2-.4,.3-.5,.3s-.2-.2-.4-.3c.1-.1,.2-.3,.4-.3,.1-.1,.2,.1,.5,.3Z"/>
        <path class="cls-3" d="M11.6,27c-.2,.2-.4,.3-.5,.3s-.3-.2-.3-.3,.2-.3,.3-.3,.2,.2,.5,.3Z"/>
        <path class="cls-3" d="M12.6,38.6c.1,.2,.3,.3,.3,.4s-.2,.3-.3,.3-.3-.2-.3-.3c0,0,.2-.2,.3-.4Z"/>
        <path class="cls-3" d="M2.2,35.1c-.6-.7-.6-.8-.4-1.5-.1,.1-.2,.1-.3,.1-.4,.1-.8,0-1-.3s-.2-.8,0-1.1c.2-.3,.6-.5,1-.4,.1,0,.2,.1,.2,.1,.4,.3,.5,.8,.4,1.2,.3-.1,.7-.2,1-.3,0-.2-.1-.5-.1-.7-.5-.1-.9-.2-1.3-.2v-.2c-.3-.4-.3-.8-.1-1.2,.2-.4,.6-.6,1.1-.5h.1c0-.4-.1-.8-.1-1.1-.2,0-.5,.1-.7,.1s-.5-.2-.6-.4c-.3-.3-.2-.8,.1-1.2,.3-.3,.7-.4,1.1-.3,.5,.2,.7,.6,.6,1.2,.3-.1,.6-.2,1-.3,0-.2,0-.5-.1-.7-.6,.2-1.1,.1-1.4-.4-.2-.4-.2-.8,0-1.1,.3-.5,.8-.6,1.3-.4-.3-.5-.3-.9,0-1.4,.3-.4,.7-.5,1.3-.4-.2-.5-.2-.9,.1-1.3s.7-.5,1.2-.4c-.1-.5-.2-.9,.1-1.3s.7-.4,1.2-.4c-.2-.5-.3-1,.1-1.3,.2-.2,.5-.3,.8-.3,.7,0,1.1,.5,1,1.3,.3-.1,.6-.1,.9-.2v-1c-.7,.2-1.1,.1-1.4-.4-.2-.4-.2-.8,.1-1.1,.3-.3,.7-.4,1.1-.2s.6,.6,.5,1.3c.2-.1,.3-.1,.5-.2h.6c-.2-.6-.2-1.1,.3-1.5,.4-.2,.7-.2,1.1,0,.5,.3,.6,.8,.4,1.2,.3-.1,.7-.1,1-.2-.2-.8,.2-1.4,.8-1.5,.8-.1,1.2,.4,1.3,1.3,.3,0,.6-.1,1-.1-.1-.4-.2-.9,.2-1.2,.2-.2,.5-.3,.7-.3,.6-.1,1.1,.4,1.1,1.3,.2,0,.4-.1,.6-.1s.4,.1,.6,.1c-.2-.7-.2-1.1,.3-1.4,.3-.2,.8-.2,1.1,0,.3,.3,.4,.7,.3,1.1-.2,.5-.5,.6-1.3,.6,.1,.3,.2,.7,.2,1h1c-.3-.5-.3-1,.2-1.4,.3-.3,.8-.3,1.2,0,.5,.3,.5,.8,.4,1.4,.5-.3,.9-.4,1.3-.1,.4,.3,.5,.7,.5,1.3,.5-.2,1-.2,1.4,.2,.4,.4,.4,.9,.1,1.4,.5-.4,.9-.5,1.4-.2s.6,.8,.4,1.3c.6-.3,1.1-.3,1.5,.2,.3,.3,.3,.7,.1,1.1-.2,.5-.6,.6-1.1,.6,0,.3,.1,.6,.1,1,.4-.2,.8,0,1.3,.2h0c.2,.4,.4,.8,.3,1.3,.5-.2,.9-.2,1.2,.1,.2,.2,.3,.5,.4,.7,.1,.6-.4,1-1.2,1.1,0,.3,.1,.6,.1,1,.4-.1,.8-.2,1.1,.2,.2,.2,.3,.4,.4,.7,.1,.7-.3,1.1-1.2,1.2,0,.3,0,.7,.1,1,.5-.2,1-.1,1.3,.3,.3,.3,.3,.7,.1,1.1-.3,.5-.7,.6-1.3,.5,.3,.5,.2,.9,0,1.4h-.1c-.3,.2-.7,.3-1.1,.5v.8c.5-.2,1-.2,1.4,.3,.2,.4,.3,.7,0,1.1-.3,.5-.7,.6-1.3,.4,.2,.5,.3,.9,0,1.3s-.8,.5-1.3,.4c.2,.5,.3,.9,0,1.3s-.7,.5-1.2,.4c.2,.5,.2,.9-.1,1.3-.4,.4-.8,.4-1.3,.3,.3,.5,.4,1.1-.1,1.5-.3,.3-.8,.4-1.2,.2-.4-.2-.6-.6-.5-1.3-.3,.1-.6,.1-.9,.2,0,.3,0,.6,.1,1,.7-.2,1.1-.1,1.3,.3s.2,.8-.1,1.1c-.3,.3-.7,.4-1.1,.3-.4-.2-.6-.6-.5-1.1-.4,.1-.7,.1-1.1,.2,.2,.5,.1,1-.3,1.3-.3,.3-.7,.3-1.1,.1-.5-.3-.6-.7-.6-1.2-.3,0-.6,.1-1,.1,.2,.4,.1,.9-.1,1.3h0l-.6,.3c-.7,.2-1.4-.3-1.4-1.1v-.2c-.3,0-.7,.1-1,.1,.2,.5,.2,.9-.2,1.3-.3,.3-.7,.4-1.1,.2-.5-.2-.7-.7-.6-1.2-.4,0-.8,0-1.1,.1,.2,.6,.1,1-.3,1.3-.3,.2-.8,.2-1.1,0-.4-.3-.5-.7-.3-1.3-.4,.3-.9,.5-1.3,.2-.5-.3-.6-.7-.5-1.2-.5,.2-.9,.2-1.3-.1-.4-.3-.5-.7-.4-1.2-1.2,.2-1.8-.2-1.7-1.4-.5,.2-.9,.2-1.3-.1-.4-.3-.5-.8-.4-1.3-.5,.2-.9,.2-1.3-.1-.4-.4-.4-.8-.2-1.3-.5,.3-1,.4-1.4,0-.3-.3-.4-.6-.2-1,.2-.6,.6-.7,1.2-.7,0-.4-.1-.7-.1-1h-.1c-.5,.1-.9,.1-1.2-.3s-.3-.9-.1-1.3c0,0,0-.1,.1-.1h0c.3-.1,.7-.3,1.1-.4,0-.2-.1-.5-.1-.7-.9-.5-1.2-.5-1.6-.6h0Zm26.5-8c.4-.1,.8-.3,1.1-.4,0-.2-.1-.5-.1-.8-.5,.2-.9,0-1.3-.2-.1-.4-.3-.8-.4-1.2-1,.3-1.6-.2-1.6-1.4-1,.3-1.5-.1-1.7-1.2-1,.2-1.6-.2-1.7-1.2h-1.1c.2,.6,.2,1-.2,1.3-.3,.2-.8,.3-1.1,0-.4-.2-.5-.7-.4-1.1,.2-.4,.5-.6,1.2-.6-.1-.3-.1-.7-.2-1-.2,0-.5,0-.7,.1,.1,.9-.2,1.5-.8,1.6-.7,.1-1.1-.3-1.2-1.3-.3,0-.7,.1-1,.1,.2,.5,.1,.9-.2,1.2-.3,.3-.7,.3-1.1,.2-.5-.2-.6-.7-.6-1.1-.4,0-.7,.1-1.1,.1,.2,.8,0,1.4-.7,1.5-.2,.1-.6,0-.8-.1-.5-.2-.6-.7-.5-1.1-.3,0-.5,.1-.8,.1v1c.6-.2,1-.2,1.3,.2,.3,.3,.3,.8,0,1.1-.2,.3-.7,.5-1.1,.3-.2-.1-.4-.3-.5-.5s0-.5-.1-.6c-.3,.1-.7,.2-1.1,.2,.2,.4,.1,.8-.2,1.2-.3,.4-.8,.4-1.3,.3,.3,.5,.3,.9,0,1.4-.3,.4-.8,.4-1.3,.3,.2,.4,.3,.9,0,1.3s-.7,.5-1.1,.5c.2,1.1-.1,1.6-1.2,1.7v1c.5-.2,1-.2,1.3,.2,.3,.3,.3,.7,.2,1.1-.3,.6-.7,.7-1.2,.6v1.3c.5-.3,.9-.3,1.3,0,.3,.3,.4,.7,.2,1.1-.1,.2-.3,.4-.6,.5-.2,.1-.5,.1-.7,.1,.1,.4,.1,.7,.2,1.1,.6-.2,1-.2,1.3,.2,.3,.3,.3,.8,.1,1.2-.2,.4-.6,.6-1.3,.5,.1,.3,.2,.6,.3,1,1-.2,1.5,.2,1.6,1.4,1.1-.4,1.8,.2,1.6,1.4,.9-.4,1.8,0,1.7,1.3,.4-.2,.9-.2,1.3,.1,.4,.3,.4,.8,.4,1.3,.5-.2,.9-.3,1.3,0,.4,.3,.5,.7,.5,1.1,.3,0,.6,0,.8-.1-.2-.8,.1-1.5,.8-1.5,.3,0,.6,.1,.8,.2,.4,.2,.4,.6,.4,1,.4,0,.8,0,1.1-.1-.2-.4-.2-.8,.1-1.2,.3-.3,.6-.4,1-.3,.6,.2,.7,.7,.7,1.2,.4,0,.7-.1,1.1-.1-.2-.5-.2-.9,.3-1.3,.3-.3,.7-.4,1.1-.2,.5,.3,.7,.7,.6,1.3,.3-.1,.6-.1,.8-.1v-1.1c-.6,.2-1,.2-1.3-.2-.2-.3-.3-.8,0-1.1,.2-.3,.7-.5,1-.4,.6,.2,.7,.7,.6,1.2,.4-.1,.7-.1,1.1-.2-.3-1,.3-1.6,1.4-1.6-.2-.4-.2-.9,.2-1.2,.3-.4,.8-.4,1.3-.3-.3-.5-.3-.9,0-1.3s.7-.5,1.1-.5v-1c-.6,.2-1,.1-1.3-.2-.2-.3-.3-.8,0-1.1,.2-.3,.7-.5,1.1-.4,.6,.2,.7,.7,.7,1.2,.3-.1,.6-.2,.9-.2v-.8c-.9,.2-1.5-.1-1.6-.8-.1-.7,.4-1.2,1.3-1.2,0-.3-.1-.7-.1-1-.5,.2-.9,.2-1.3-.2-.3-.3-.4-.8-.2-1.1,.3-.6,.8-.7,1.3-.6-.1-.4-.1-.7-.2-1.1,0,0-.1,0-.2,.1-.8,.2-1.5-.4-1.4-1.2-.1-.5,0-.7,.1-.9Zm-19.8,15.9v-.9c-.4,0-.7,.1-1.1,.1,.1,.3,.1,.6,.2,1,.3-.1,.6-.2,.9-.2Zm15.5-23.3v-1c-.3,0-.7,.1-1,.1,.1,.3,.1,.6,.2,.9,.2,.1,.5,.1,.8,0ZM3.9,33.7c0,.2,.1,.5,.1,.7h1v-1c-.4,.1-.7,.2-1.1,.3Zm15.3,12.7c.2,0,.5-.1,.8-.1,0-.3-.1-.7-.1-1h-.8c0,.4,0,.8,.1,1.1Zm8.3-2.5c-.1-.3-.1-.6-.2-1-.2,0-.5,.1-.8,.1v1c.3,0,.6,0,1-.1Zm-16,1.9c.3,0,.6-.1,.8-.1,0-.3-.1-.7-.1-1-.3,0-.6,.1-.9,.1,.1,.4,.1,.7,.2,1Zm2.3,.4h-.8v1c.3-.1,.7-.1,1-.2,0-.2-.1-.5-.2-.8Zm14-23.8v-1c-.3,.1-.7,.2-1,.2,0,.3,.1,.6,.1,.8,.3,.1,.6,0,.9,0ZM6.3,41v.8c.4,0,.7-.1,1-.1-.1-.3-.1-.6-.2-.9-.2,.1-.5,.2-.8,.2Zm-.5-15.9c.3,0,.7,0,.9-.1,0-.3-.1-.6-.1-.9-.3,0-.6,.1-.9,.1,.1,.3,.1,.6,.1,.9Zm23.3,15.4c.3,0,.6,0,.9-.1,0-.3-.1-.6-.1-.9-.3,0-.7,.1-1,.1,.1,.4,.2,.7,.2,.9Zm-23.8-3.1c0-.3-.1-.6-.1-.9-.3,.1-.6,.1-1,.2,0,.2,0,.5,.1,.7,.4,0,.7,0,1,0Zm-.9-6.9c-.3,0-.7,.1-1,.1,0,.3,.1,.5,.1,.8,.3,0,.7,0,1-.1,0-.2,0-.5-.1-.8Zm26.5,.7c.3-.1,.6-.1,1-.2,0-.2-.1-.5-.1-.7h-1c0,.3,.1,.6,.1,.9ZM12.7,18.7c0,.3,.1,.6,.2,.9,.3,0,.5-.1,.7-.1v-1c-.3,.1-.6,.2-.9,.2Zm10.2,26.3c-.3,0-.6,.1-.8,.1,0,.3,.1,.6,.1,1,.3,0,.5,0,.8-.1-.1-.4-.1-.7-.1-1Zm9.4-10.9c0-.3-.1-.6-.1-.8-.3,0-.6,.1-1,.1,0,.3,0,.5,.1,.8,.4-.1,.7-.1,1-.1Zm-1.1,3.8c-.2,0-.5,.1-.8,.2v.8c.3,0,.7,0,.9-.1,0-.2,0-.6-.1-.9Zm-1.7-15.1c-.3,.1-.7,.1-1,.2,0,.2,.1,.5,.2,.8,.3,0,.6-.1,.9-.1-.1-.3-.1-.6-.1-.9ZM9.7,43.6c0,.3,.1,.6,.1,.9,.3,0,.6-.1,.8-.1,0-.3-.1-.6-.1-.9-.3,0-.5,0-.8,.1ZM5.3,26.6c0-.3,0-.6-.1-.8-.3,0-.7,0-1,.1,.1,.3,.1,.6,.2,.9,.4-.1,.7-.1,.9-.2Zm1.8-4.1c0,.3,.1,.6,.1,.9,.3,0,.6-.1,.9-.1-.1-.3-.1-.6-.2-.9-.3,.1-.5,.1-.8,.1Zm1.3-1.7c0,.3,.1,.6,.1,.9,.3,0,.6-.1,.8-.1,0-.3-.1-.6-.1-.9-.3,.1-.6,.1-.8,.1Zm-3.9,18.9v.9c.3-.1,.6-.2,1-.2,0-.2-.1-.5-.1-.7-.3,0-.6,0-.9,0Zm14.4-20.7c.3,0,.5-.1,.8-.1,0-.3-.1-.6-.1-.9-.3,0-.5,.1-.8,.1,0,.2,0,.5,.1,.9Zm11.7,9.1c.3,0,.6-.1,1-.1,0-.2-.1-.5-.1-.7-.3,0-.7,.1-1,.1,0,.2,0,.5,.1,.7Zm-13.8,17.6c-.2,0-.5,.1-.7,.1,0,.3,.1,.6,.1,1,.3,0,.5-.1,.7-.1,0-.3-.1-.7-.1-1Zm11.7-4.4c-.3,0-.5,.1-.8,.1,0,.3,.1,.6,.1,.8,.3,0,.6-.1,.8-.1,0-.2,0-.5-.1-.8ZM15.8,18.4c0,.3,.1,.6,.1,.9,.3,0,.5-.1,.7-.1,0-.3-.1-.6-.1-.9-.2,.1-.5,.1-.7,.1Zm9.3,1.9c0,.3,.1,.5,.1,.8,.3,0,.5-.1,.8-.1,0-.3-.1-.6-.1-.9-.2,.1-.5,.2-.8,.2Z"/>
      </g>
    </g>
    <g>
      <path class="cls-1" d="M45.2,17.5v13.9h5.4v3.4h-9.3V17.5h3.9Z"/>
      <path class="cls-1" d="M67.6,19.6c1.6,1.6,2.7,3.9,2.7,6.5,0,2.3-.8,4.7-2.7,6.5-1.6,1.6-3.8,2.5-6.7,2.5-3.2,0-5.4-1.3-6.7-2.5-1.7-1.6-2.7-3.9-2.7-6.4s1.1-5,2.7-6.5c1.2-1.2,3.3-2.5,6.8-2.5,2.6-.1,4.8,.8,6.6,2.4Zm-10.5,2.7c-.7,.7-1.5,2-1.5,3.9,0,1.6,.5,2.8,1.6,3.9s2.4,1.4,3.7,1.4c1.8,0,3-.6,3.8-1.5,.7-.6,1.5-1.9,1.5-3.9,0-1.8-.7-3.1-1.5-3.9-.9-.8-2.2-1.5-3.8-1.5-1.5,.1-2.9,.6-3.8,1.6Z"/>
      <path class="cls-1" d="M81.5,25.4h8.6v.2c0,2.1-.7,5.3-2.7,7.3-1.9,2-4.1,2.4-6.2,2.4s-4.3-.3-6.3-2.4c-1-1-2.5-3.1-2.5-6.6,0-2.8,1-5.1,2.5-6.5,2.1-2.2,4.7-2.5,6.8-2.5,1.4,0,3.2,.2,4.8,1.3,1.2,.8,2.2,2,2.8,3.1l-3.6,1.9c-.3-.7-.9-1.4-1.5-1.9-.8-.6-1.7-.8-2.6-.8-1.6,0-2.7,.5-3.6,1.4-1,1-1.5,2.5-1.5,4.1,0,2,.7,3.2,1.4,4,1,1,2.2,1.3,3.5,1.3,1.7,0,2.6-.6,3-.9,.1-.1,.9-.8,1.2-2h-4.2v-3.4h.1Z"/>
      <path class="cls-1" d="M108.4,19.6c1.6,1.6,2.7,3.9,2.7,6.5,0,2.3-.8,4.7-2.7,6.5-1.6,1.6-3.8,2.5-6.7,2.5-3.2,0-5.4-1.3-6.7-2.5-1.7-1.6-2.7-3.9-2.7-6.4s1.1-5,2.7-6.5c1.2-1.2,3.3-2.5,6.8-2.5,2.6-.1,4.8,.8,6.6,2.4Zm-10.5,2.7c-.7,.7-1.5,2-1.5,3.9,0,1.6,.5,2.8,1.6,3.9s2.4,1.4,3.7,1.4c1.8,0,3-.6,3.8-1.5,.7-.6,1.5-1.9,1.5-3.9,0-1.8-.7-3.1-1.5-3.9-.9-.8-2.2-1.5-3.8-1.5-1.5,.1-2.9,.6-3.8,1.6Z"/>
      <path class="cls-1" d="M119.5,20.9v13.9h-4v-13.9h-3.8v-3.4h11.5v3.4h-3.7Z"/>
      <path class="cls-1" d="M129.4,17.5v17.3h-4V17.5h4Z"/>
      <path class="cls-1" d="M139.4,17.5c1.5,0,3.2,.2,4.5,1.4,1.5,1.3,1.7,3,1.7,4.2,0,2.2-.8,3.4-1.5,4.1-1.4,1.4-3.2,1.5-4.4,1.5h-2.4v6.1h-4V17.5h6.1Zm-2.1,8h1.4c.5,0,1.5,0,2.1-.6,.4-.4,.6-1,.6-1.7s-.3-1.3-.6-1.7c-.6-.6-1.4-.6-2.2-.6h-1.3v4.6Z"/>
    </g>
    <g>
      <path class="cls-1" d="M42.9,37.8c.9,0,1.7,.1,2.3,.6,.7,.6,.8,1.4,.8,1.9,0,1.3-.8,2.5-2.9,2.5h-.9v3.9h-1v-9h1.7v.1Zm-.6,4.2h.8c1.2,0,1.9-.6,1.9-1.6,0-1.4-1.3-1.6-2-1.6h-.7v3.2h0Z"/>
      <path class="cls-1" d="M48.6,41.2h1v.6c.1-.1,.5-.7,1.3-.7,.3,0,.6,.1,.9,.2l-.5,.9c-.2-.1-.4-.2-.6-.2-.4,0-.6,.2-.8,.4s-.3,.6-.3,1.5v3h-1v-5.7Z"/>
      <path class="cls-1" d="M54.4,38.4c.4,0,.7,.3,.7,.7s-.3,.7-.7,.7-.7-.3-.7-.7,.3-.7,.7-.7Zm.5,2.8v5.6h-1v-5.6h1Z"/>
      <path class="cls-1" d="M58.1,41.2h1v.7c.2-.2,.7-.8,1.6-.8,.7,0,1.3,.3,1.6,.8,.3,.4,.3,.9,.3,1.5v3.5h-1v-3.5c0-.3,0-.7-.3-1-.2-.2-.5-.4-.9-.4-.3,0-.7,.1-1,.4-.4,.4-.4,1.1-.4,1.5v2.9h-1v-5.6h.1Z"/>
      <path class="cls-1" d="M66.9,42.1v4.7h-1v-4.7h-.6v-.9h.6v-2h1v2h1v.9h-1Z"/>
      <path class="cls-1" d="M81.8,43.6c-.2,.3-.6,.8-1.2,1.3l1.5,2h-1.2l-1-1.3c-.8,.8-1.9,1.4-2.9,1.4-1.5,0-2.6-1.1-2.6-2.5,0-1,.5-1.6,.8-1.9,.5-.5,1.3-1,1.5-1.1-.6-.8-.9-1.3-.9-1.9,0-1,.7-1.9,2-1.9s1.9,.9,1.9,1.8c0,.4-.1,1-.8,1.6-.2,.2-.1,.1-.7,.6l1.9,2.4c.5-.5,.8-.8,1-1.2l.7,.7Zm-4.4-1.3c-.7,.4-1,.7-1.3,.9-.3,.2-.6,.6-.6,1.3,0,.9,.7,1.6,1.6,1.6,1,0,2-.9,2.3-1.2l-2-2.6Zm.2-1.3l.6-.5c.5-.4,.6-.7,.6-1,0-.6-.5-.9-1-.9-.6,0-1,.4-1,1,0,.4,.2,.7,.4,.9l.4,.5Z"/>
      <path class="cls-1" d="M94.1,42.3h3.8v.2c0,1-.3,2.1-.9,2.9-.3,.4-1.3,1.6-3.4,1.6-2.7,0-4.7-2-4.7-4.7s2-4.7,4.7-4.7c.9,0,1.9,.2,2.8,.9,.4,.3,.8,.7,1,1.1l-.7,.7c-.3-.4-.6-.7-.9-.9-.4-.4-1.1-.8-2.2-.8-2.2,0-3.7,1.6-3.7,3.7,0,2.5,2,3.7,3.7,3.7,1.2,0,2.3-.6,2.8-1.5,.2-.3,.3-.7,.4-1.3h-2.7v-.9h0Z"/>
      <path class="cls-1" d="M100.8,41.2h1v.6c.1-.1,.5-.7,1.3-.7,.3,0,.6,.1,.9,.2l-.5,.9c-.2-.1-.4-.2-.6-.2-.4,0-.6,.2-.8,.4s-.3,.6-.3,1.5v3h-1v-5.7Z"/>
      <path class="cls-1" d="M110.2,41.2h1v5.6h-1v-.8c-.3,.4-.9,.9-1.9,.9-1.4,0-2.7-1-2.7-3s1.3-2.9,2.7-2.9c1.1,0,1.7,.6,1.9,.9v-.7Zm-3.7,2.9c0,1.2,.7,2.1,1.8,2.1,1.2,0,1.9-1,1.9-2.1,0-1.5-1-2.1-1.9-2.1s-1.8,.7-1.8,2.1Z"/>
      <path class="cls-1" d="M115.4,50h-1v-8.8h1v.8c.7-.8,1.5-.9,1.9-.9,1.8,0,2.7,1.5,2.7,3s-1,2.9-2.7,2.9c-.9,0-1.5-.4-2-.9v3.9h.1Zm3.6-5.9c0-1.4-.9-2.1-1.8-2.1s-1.9,.7-1.9,2.1c0,1.2,.7,2.1,1.9,2.1,1.1,0,1.8-1,1.8-2.1Z"/>
      <path class="cls-1" d="M122.9,37h1v4.9c.2-.2,.7-.8,1.6-.8,.7,0,1.3,.3,1.6,.8,.3,.4,.3,.9,.3,1.5v3.5h-1v-3.5c0-.3,0-.7-.3-1-.2-.2-.5-.4-.9-.4-.3,0-.7,.1-1,.4-.4,.4-.4,1.1-.4,1.5v2.9h-1v-9.8h.1Z"/>
      <path class="cls-1" d="M131.1,38.4c.4,0,.7,.3,.7,.7s-.3,.7-.7,.7-.7-.3-.7-.7,.3-.7,.7-.7Zm.5,2.8v5.6h-1v-5.6h1Z"/>
      <path class="cls-1" d="M139.2,42.8c-.5-.7-1.3-.8-1.8-.8-1,0-2,.7-2,2.1s1,2.1,2,2.1c.6,0,1.3-.3,1.8-.9v1.2c-.6,.4-1.3,.6-1.8,.6-1.7,0-3-1.2-3-2.9s1.3-3,3-3c.9,0,1.5,.4,1.7,.5v1.1h.1Z"/>
      <path class="cls-1" d="M144.4,42.6c-.1-.3-.4-.6-.8-.6s-.7,.2-.7,.6,.3,.5,.9,.8c.8,.3,1.2,.6,1.4,.9,.2,.3,.3,.6,.3,.9,0,1.2-.9,1.8-1.9,1.8-.2,0-1.5,0-2-1.4l.8-.4c.1,.3,.4,.9,1.1,.9,.6,0,.9-.5,.9-.9,0-.5-.4-.7-.9-.9-.7-.3-1.1-.5-1.4-.8-.2-.3-.3-.5-.3-.8,0-1,.7-1.6,1.6-1.6,.3,0,1.1,.1,1.5,1l-.5,.5Z"/>
    </g>
  </g>
</svg>