<?xml version="1.0" encoding="UTF-8"?>
<!DOCTYPE svg PUBLIC "-//W3C//DTD SVG 1.1//EN" "http://www.w3.org/Graphics/SVG/1.1/DTD/svg11.dtd">
<!-- Creator: CorelDRAW X8 -->
<svg xmlns="http://www.w3.org/2000/svg" xml:space="preserve" width="11.6929in" height="8.26772in" version="1.1" style="shape-rendering:geometricPrecision; text-rendering:geometricPrecision; image-rendering:optimizeQuality; fill-rule:evenodd; clip-rule:evenodd"
viewBox="0 0 11693 8268"
 xmlns:xlink="http://www.w3.org/1999/xlink">
 <defs>
  <style type="text/css">
   <![CDATA[
    .fil1 {fill:#461946;fill-rule:nonzero}
    .fil0 {fill:#321B33;fill-rule:nonzero}
   ]]>
  </style>
 </defs>
 <g id="Layer_x0020_1">
  <metadata id="CorelCorpID_0Corel-Layer"/>
  <g id="_1491892612000">
   <polygon class="fil0" points="0,0 0,8268 11693,8268 11693,0 "/>
   <g>
    <path class="fil1" d="M7008 2738c0,0 0,0 0,0 -1,-1 -2,-1 -2,-1l2 1z"/>
    <path class="fil1" d="M5626 5199c0,1 -1,1 -1,1 -1,0 -1,1 -1,1 0,0 2,-2 2,-2z"/>
    <path class="fil1" d="M5592 5010c-49,-37 -116,-36 -165,0 -46,35 -65,98 -45,153 21,59 75,100 136,89 37,-7 71,-34 107,-52 4,-12 9,-25 13,-37 19,-57 0,-118 -46,-153z"/>
    <path class="fil1" d="M8349 1933c-59,-31 -132,-15 -171,38 -40,55 -35,128 12,176 48,47 120,53 175,13 12,-9 24,-17 35,-25 4,-13 8,-26 12,-38 22,-65 -4,-132 -63,-164z"/>
    <path class="fil1" d="M8402 2134c-1,0 -1,0 -2,1 0,0 0,0 0,0l2 -1z"/>
    <path class="fil1" d="M5904 7187c0,-71 -60,-132 -132,-134 -73,-2 -137,60 -137,134 0,72 60,133 132,134 73,2 137,-60 137,-134z"/>
    <path class="fil1" d="M5516 5763c0,-72 -61,-132 -132,-131 -70,1 -129,58 -130,128 -2,72 58,133 130,134 71,1 132,-59 132,-131z"/>
    <path class="fil1" d="M5569 6178c0,-71 -62,-132 -133,-132 -71,1 -132,62 -131,133 0,72 62,133 133,132 71,0 132,-62 131,-133z"/>
    <path class="fil1" d="M7408 2382c-1,-70 -59,-128 -129,-129 -72,-1 -133,59 -133,131 -1,71 60,132 132,132 72,-1 132,-63 130,-134z"/>
    <path class="fil1" d="M6263 3367c3,-73 -54,-134 -127,-135 -71,-2 -129,54 -132,124 -3,73 54,134 127,135 71,2 129,-54 132,-124z"/>
    <path class="fil1" d="M6181 7780c0,-70 -58,-130 -128,-131 -72,-2 -134,59 -134,131 0,70 58,129 129,131 72,1 133,-59 133,-131z"/>
    <path class="fil1" d="M5619 6586c1,-70 -55,-129 -125,-132 -73,-2 -134,55 -135,128 -1,71 54,129 125,132 73,3 134,-55 135,-128z"/>
    <path class="fil1" d="M8000 2106c2,-70 -55,-130 -126,-133 -71,-3 -134,56 -135,129 -1,70 55,129 126,132 72,3 134,-56 135,-128z"/>
    <path class="fil1" d="M10167 2162c71,0 130,-58 131,-129 2,-72 -59,-133 -131,-133 -70,0 -129,58 -131,128 -1,72 59,134 131,134z"/>
    <path class="fil1" d="M9523 2037c70,0 129,-58 131,-129 1,-72 -59,-133 -132,-133 -70,0 -129,58 -130,129 -2,72 59,133 131,133z"/>
    <path class="fil1" d="M11379 2710c2,71 59,126 131,125 72,-1 127,-57 127,-129 0,-72 -56,-128 -128,-128 -74,0 -131,58 -130,132z"/>
    <path class="fil1" d="M6450 3136c2,-72 -54,-130 -125,-133 -71,-2 -130,53 -134,124 -3,72 51,131 123,135 73,4 134,-53 136,-126z"/>
    <path class="fil1" d="M5596 4705c1,-73 -53,-129 -125,-130 -73,-2 -130,53 -131,125 -1,73 54,129 126,131 72,1 129,-54 130,-126z"/>
    <path class="fil1" d="M6085 3602c1,-72 -54,-129 -125,-130 -74,-2 -132,56 -132,130 1,72 57,127 129,127 71,0 128,-55 128,-127z"/>
    <path class="fil1" d="M11269 2659c72,0 128,-56 129,-128 1,-71 -54,-129 -126,-130 -74,-2 -132,56 -132,130 1,72 57,128 129,128z"/>
    <path class="fil1" d="M11039 2469c73,0 129,-55 128,-128 -1,-70 -55,-124 -126,-125 -72,0 -128,56 -127,128 1,71 55,125 125,125z"/>
    <path class="fil1" d="M5459 5348c1,-71 -53,-126 -123,-127 -73,-2 -129,53 -129,125 0,71 53,126 123,127 73,2 129,-53 129,-125z"/>
    <path class="fil1" d="M6624 2905c1,-71 -52,-126 -122,-128 -73,-2 -130,52 -132,124 -1,73 53,129 125,130 73,1 129,-54 129,-126z"/>
    <path class="fil1" d="M5906 3832c1,-71 -51,-127 -121,-129 -73,-2 -130,52 -131,124 -1,71 51,127 121,129 73,2 130,-52 131,-124z"/>
    <path class="fil1" d="M6809 2678c2,-69 -53,-126 -122,-128 -69,-1 -126,54 -127,123 -2,69 53,126 122,127 69,2 126,-53 127,-122z"/>
    <path class="fil1" d="M5822 7468c-69,0 -125,55 -125,124 0,69 55,125 124,126 69,0 125,-56 126,-125 0,-69 -56,-125 -125,-125z"/>
    <path class="fil1" d="M10807 2290c68,3 127,-52 129,-120 2,-69 -54,-127 -122,-128 -68,-2 -126,55 -127,123 0,66 54,123 120,125z"/>
    <path class="fil1" d="M9002 1776c3,-67 -54,-127 -121,-129 -66,-1 -123,53 -127,119 -3,67 54,127 121,129 66,1 124,-53 127,-119z"/>
    <path class="fil1" d="M5717 4060c1,-67 -57,-126 -125,-126 -65,1 -122,56 -123,122 -1,68 57,126 124,126 66,-1 122,-56 124,-122z"/>
    <path class="fil1" d="M8586 1825c1,-68 -57,-126 -125,-126 -66,1 -122,57 -123,122 0,68 58,126 125,126 66,-1 122,-57 123,-122z"/>
    <path class="fil1" d="M7578 2155c0,-66 -56,-122 -122,-124 -68,-1 -127,57 -126,125 0,66 55,122 122,124 68,1 126,-57 126,-125z"/>
    <path class="fil1" d="M10052 1858c2,-68 -54,-127 -123,-128 -66,-1 -123,54 -125,120 -2,68 55,127 123,128 66,1 123,-54 125,-120z"/>
    <path class="fil1" d="M5533 6875c-69,-1 -126,54 -127,123 -1,70 55,127 124,127 69,0 126,-57 125,-126 0,-67 -55,-122 -122,-124z"/>
    <path class="fil1" d="M5284 4820c-66,-2 -123,54 -124,120 -1,66 55,123 121,123 64,0 119,-52 121,-117 3,-65 -52,-124 -118,-126z"/>
    <path class="fil1" d="M8042 1996c66,3 124,-53 125,-120 1,-64 -51,-119 -116,-122 -66,-3 -125,53 -126,119 -1,65 52,120 117,123z"/>
    <path class="fil1" d="M6982 2436c-1,-65 -54,-119 -119,-120 -66,-1 -122,54 -122,121 0,65 53,118 118,120 67,1 123,-54 123,-121z"/>
    <path class="fil1" d="M9404 1719c0,-65 -53,-119 -118,-120 -67,-2 -123,53 -123,120 0,65 53,119 118,120 67,2 123,-53 123,-120z"/>
    <path class="fil1" d="M10693 1990c0,-67 -56,-122 -122,-121 -65,1 -118,55 -119,120 0,66 56,122 123,121 65,-2 118,-55 118,-120z"/>
    <path class="fil1" d="M5248 6291c-65,1 -114,50 -115,115 -1,67 50,118 117,118 67,1 117,-51 117,-118 -1,-66 -53,-117 -119,-115z"/>
    <path class="fil1" d="M5534 4296c-1,-65 -50,-115 -115,-116 -67,-2 -119,49 -120,116 -1,67 50,118 117,119 67,0 118,-52 118,-119z"/>
    <path class="fil1" d="M5198 5874c-65,0 -116,49 -118,114 -1,67 49,120 115,121 68,1 120,-49 120,-116 1,-67 -50,-119 -117,-119z"/>
    <path class="fil1" d="M7526 1928c1,64 52,114 117,114 63,-1 113,-53 113,-117 -1,-64 -52,-114 -117,-113 -63,1 -114,52 -113,116z"/>
    <path class="fil1" d="M5586 7300c-67,-2 -119,48 -120,115 0,65 49,116 113,117 67,2 119,-48 120,-115 0,-65 -48,-116 -113,-117z"/>
    <path class="fil1" d="M5156 5470c-65,0 -115,50 -115,115 -1,65 48,116 113,117 65,1 116,-47 118,-112 2,-67 -49,-119 -116,-120z"/>
    <path class="fil1" d="M9701 1792c64,-1 114,-52 113,-116 -1,-64 -52,-114 -116,-113 -64,0 -114,52 -113,116 0,64 52,114 116,113z"/>
    <path class="fil1" d="M5303 6709c-63,-1 -115,50 -116,114 0,62 49,113 111,115 63,2 117,-48 118,-112 2,-63 -49,-116 -113,-117z"/>
    <path class="fil1" d="M10341 1916c63,2 116,-50 117,-113 0,-61 -50,-113 -111,-115 -63,-2 -117,50 -117,113 0,61 49,113 111,115z"/>
    <path class="fil1" d="M5750 8010c1,61 53,112 113,112 61,0 113,-52 114,-112 0,-63 -54,-117 -117,-115 -60,2 -111,55 -110,115z"/>
    <path class="fil1" d="M7152 2208c0,-62 -50,-113 -111,-114 -63,-2 -117,50 -117,113 0,62 50,113 111,115 63,1 117,-51 117,-114z"/>
    <path class="fil1" d="M5105 5282c60,0 112,-53 111,-113 -1,-61 -55,-113 -115,-111 -58,2 -108,53 -109,111 0,60 52,114 113,113z"/>
    <path class="fil1" d="M6204 2957c1,-58 -48,-110 -107,-113 -60,-3 -115,48 -117,108 -3,60 49,115 110,116 60,2 113,-51 114,-111z"/>
    <path class="fil1" d="M6017 3189c2,-60 -49,-115 -110,-116 -60,-2 -114,50 -114,111 -1,60 52,113 112,113 58,0 110,-50 112,-108z"/>
    <path class="fil1" d="M5839 3413c0,-59 -50,-109 -109,-111 -60,-1 -113,51 -113,112 0,59 50,109 109,111 60,1 113,-51 113,-112z"/>
    <path class="fil1" d="M5234 4414c-59,-3 -114,48 -117,108 -2,60 49,114 110,116 60,1 113,-51 114,-111 0,-58 -48,-110 -107,-113z"/>
    <path class="fil1" d="M11345 2302c1,58 50,109 109,110 61,1 114,-51 113,-111 0,-59 -50,-110 -109,-111 -60,-1 -113,51 -113,112z"/>
    <path class="fil1" d="M8642 1484c-59,-2 -111,47 -113,106 -3,61 48,114 110,115 59,0 109,-50 110,-109 1,-59 -48,-110 -107,-112z"/>
    <path class="fil1" d="M6450 2593c58,-2 102,-50 100,-109 -2,-59 -50,-102 -109,-100 -58,2 -102,49 -100,108 2,59 49,103 109,101z"/>
    <path class="fil1" d="M9162 1543c1,-61 -47,-109 -108,-108 -61,0 -108,48 -107,109 1,61 50,108 111,106 59,-2 104,-48 104,-107z"/>
    <path class="fil1" d="M7120 1972c-3,62 41,111 102,112 60,2 107,-42 109,-101 2,-60 -41,-107 -100,-109 -60,-3 -108,39 -111,98z"/>
    <path class="fil1" d="M5461 7227c-1,-59 -46,-105 -106,-106 -61,-1 -109,46 -109,107 0,62 47,109 109,108 61,0 108,-48 106,-109z"/>
    <path class="fil1" d="M6377 2717c0,-60 -47,-108 -108,-108 -60,-1 -108,47 -109,108 0,60 48,108 108,108 61,0 109,-47 109,-108z"/>
    <path class="fil1" d="M11109 2112c-1,61 46,109 107,110 62,0 109,-47 109,-109 0,-59 -46,-105 -105,-107 -61,-2 -109,45 -111,106z"/>
    <path class="fil1" d="M10220 1627c1,-61 -45,-108 -107,-107 -59,1 -103,47 -103,106 0,59 45,104 105,105 59,0 105,-45 105,-104z"/>
    <path class="fil1" d="M10991 1833c-59,-2 -106,43 -107,101 -2,60 43,107 101,108 60,1 107,-43 108,-102 2,-59 -43,-106 -102,-107z"/>
    <path class="fil1" d="M8125 1647c0,60 48,108 109,107 60,0 108,-48 108,-108 0,-61 -48,-108 -109,-108 -60,0 -108,48 -108,109z"/>
    <path class="fil1" d="M5638 7716c-62,-2 -109,44 -109,106 0,59 45,104 104,105 60,0 106,-44 107,-103 1,-60 -43,-107 -102,-108z"/>
    <path class="fil1" d="M5648 3649c-2,-59 -48,-103 -107,-103 -61,-1 -108,46 -107,108 0,61 48,107 109,106 61,-2 107,-50 105,-111z"/>
    <path class="fil1" d="M5364 3985c56,0 103,-45 104,-101 2,-58 -45,-106 -103,-107 -57,0 -103,45 -105,101 -1,58 46,107 104,107z"/>
    <path class="fil1" d="M5022 6335c58,0 104,-48 103,-106 -1,-56 -46,-101 -102,-102 -58,-1 -105,45 -106,103 0,58 46,105 105,105z"/>
    <path class="fil1" d="M9466 1594c56,2 105,-41 108,-97 4,-58 -41,-108 -99,-111 -56,-2 -104,42 -108,98 -4,57 42,108 99,110z"/>
    <path class="fil1" d="M4971 5919c56,-2 101,-48 102,-103 0,-58 -48,-106 -106,-105 -55,1 -101,48 -101,103 -1,58 48,106 105,105z"/>
    <path class="fil1" d="M7714 1693c-3,58 42,107 100,109 58,2 106,-43 108,-101 1,-59 -45,-106 -103,-107 -56,-1 -103,43 -105,99z"/>
    <path class="fil1" d="M5072 6739c55,1 103,-46 104,-101 1,-56 -46,-104 -102,-105 -55,-1 -103,47 -104,102 -1,55 46,103 102,104z"/>
    <path class="fil1" d="M5052 4858c55,0 103,-47 104,-102 0,-55 -46,-103 -101,-105 -57,-1 -107,48 -106,105 1,55 48,102 103,102z"/>
    <path class="fil1" d="M6631 2361c55,1 103,-48 103,-103 -1,-53 -47,-99 -100,-100 -55,-1 -103,48 -103,103 1,53 47,99 100,100z"/>
    <path class="fil1" d="M10860 1749c-1,-54 -47,-99 -100,-99 -54,0 -100,45 -100,99 -1,53 43,100 97,101 55,2 104,-46 103,-101z"/>
    <path class="fil1" d="M4916 5498c54,1 100,-43 100,-98 1,-54 -43,-99 -98,-100 -54,-1 -99,43 -100,98 -1,54 43,99 98,100z"/>
    <path class="fil1" d="M5124 7148c54,1 95,-39 97,-92 2,-56 -39,-99 -94,-100 -54,-1 -96,39 -98,92 -2,56 39,99 95,100z"/>
    <path class="fil1" d="M5178 4207c54,-1 95,-42 96,-96 1,-56 -42,-98 -98,-98 -56,1 -98,45 -96,101 2,54 44,93 98,93z"/>
    <path class="fil1" d="M5410 7742c53,-2 94,-44 94,-97 0,-56 -44,-99 -99,-98 -56,0 -98,45 -97,100 1,56 46,98 102,95z"/>
    <path class="fil1" d="M7402 1835c54,-1 95,-42 95,-96 -1,-54 -42,-94 -96,-94 -53,0 -94,41 -94,95 0,54 41,95 95,95z"/>
    <path class="fil1" d="M9885 1343c-54,1 -94,43 -93,97 0,53 42,94 96,93 54,-1 94,-42 93,-96 0,-54 -42,-94 -96,-94z"/>
    <path class="fil1" d="M8317 1411c2,50 44,90 95,90 50,-1 91,-42 92,-93 0,-52 -43,-95 -95,-94 -52,0 -95,45 -92,97z"/>
    <path class="fil1" d="M10624 1572c0,-50 -42,-92 -93,-92 -52,0 -95,45 -93,97 2,50 45,91 95,90 51,-2 92,-44 91,-95z"/>
    <path class="fil1" d="M8732 1369c2,51 44,91 95,90 51,0 92,-41 93,-92 1,-53 -42,-96 -95,-95 -53,0 -95,44 -93,97z"/>
    <path class="fil1" d="M6807 2124c50,2 93,-38 96,-88 2,-53 -39,-97 -91,-99 -51,-1 -94,39 -96,89 -3,52 39,97 91,98z"/>
    <path class="fil1" d="M4865 5075c49,1 93,-43 92,-93 0,-49 -45,-92 -94,-91 -48,2 -89,43 -90,91 -1,49 42,93 92,93z"/>
    <path class="fil1" d="M9239 1405c49,2 94,-41 94,-91 1,-47 -40,-90 -88,-92 -49,-2 -94,41 -95,91 0,47 41,90 89,92z"/>
    <path class="fil1" d="M7904 1461c1,47 43,89 90,89 49,0 93,-44 91,-93 -1,-47 -43,-88 -90,-89 -49,0 -93,44 -91,93z"/>
    <path class="fil1" d="M5001 4430c47,-1 89,-42 90,-89 2,-49 -42,-93 -91,-93 -47,0 -89,41 -90,89 -2,49 42,93 91,93z"/>
    <path class="fil1" d="M5675 3098c48,0 90,-40 91,-89 1,-48 -40,-90 -89,-91 -48,0 -90,40 -90,89 -1,48 39,90 88,91z"/>
    <path class="fil1" d="M4794 6131c48,-1 85,-38 85,-86 1,-50 -38,-89 -88,-88 -50,0 -88,41 -85,91 2,47 40,83 88,83z"/>
    <path class="fil1" d="M4841 6546c48,1 87,-34 89,-82 3,-50 -34,-90 -85,-91 -48,0 -86,36 -87,84 -1,49 35,87 83,89z"/>
    <path class="fil1" d="M5170 7555c50,4 91,-32 94,-82 3,-49 -34,-90 -83,-92 -49,-3 -90,35 -91,84 -2,47 33,86 80,90z"/>
    <path class="fil1" d="M5853 2856c48,0 86,-37 87,-84 2,-49 -36,-89 -85,-90 -50,-2 -89,37 -90,86 0,50 39,89 88,88z"/>
    <path class="fil1" d="M5488 3323c48,1 86,-35 88,-83 1,-50 -36,-89 -86,-90 -48,0 -86,35 -88,83 -1,50 36,90 86,90z"/>
    <path class="fil1" d="M6042 2625c49,-1 84,-38 83,-87 -1,-49 -38,-84 -87,-83 -49,1 -84,39 -83,88 1,48 38,84 87,82z"/>
    <path class="fil1" d="M6216 2394c44,0 83,-37 83,-82 1,-44 -37,-82 -81,-83 -45,0 -83,37 -84,82 0,44 38,82 82,83z"/>
    <path class="fil1" d="M9651 1178c-45,-2 -84,33 -87,78 -3,46 31,85 77,89 47,3 88,-33 90,-81 1,-45 -34,-83 -80,-86z"/>
    <path class="fil1" d="M5453 8144c48,2 87,-34 88,-81 1,-46 -33,-84 -78,-86 -48,-3 -88,34 -89,81 -1,46 34,84 79,86z"/>
    <path class="fil1" d="M6997 1875c46,0 82,-35 83,-81 1,-48 -36,-86 -84,-86 -46,0 -82,36 -83,81 -1,48 36,86 84,86z"/>
    <path class="fil1" d="M4968 6877c1,-44 -36,-83 -80,-84 -45,-1 -84,37 -84,81 -1,44 36,83 81,84 44,1 83,-37 83,-81z"/>
    <path class="fil1" d="M11320 1882c-2,49 34,87 82,88 49,1 86,-35 87,-84 0,-49 -36,-85 -85,-85 -47,0 -82,35 -84,81z"/>
    <path class="fil1" d="M5311 3549c48,1 85,-35 85,-84 0,-46 -34,-82 -80,-83 -48,-2 -86,33 -88,81 -1,48 35,86 83,86z"/>
    <path class="fil1" d="M7585 1594c48,2 87,-35 87,-82 1,-45 -34,-82 -79,-84 -48,-2 -87,35 -87,82 -1,46 34,83 79,84z"/>
    <path class="fil1" d="M4743 5712c48,-1 84,-40 82,-88 -2,-46 -38,-80 -84,-80 -49,0 -85,37 -85,85 1,48 39,84 87,83z"/>
    <path class="fil1" d="M10375 1387c1,-47 -38,-86 -86,-84 -45,2 -81,39 -80,85 1,45 38,82 83,81 46,0 83,-36 83,-82z"/>
    <path class="fil1" d="M4820 4659c43,3 84,-36 85,-80 1,-41 -35,-80 -77,-82 -44,-3 -85,35 -86,79 -1,42 36,81 78,83z"/>
    <path class="fil1" d="M11173 1617c-42,1 -78,39 -79,81 0,44 40,83 84,81 42,-1 79,-39 79,-80 0,-44 -40,-84 -84,-82z"/>
    <path class="fil1" d="M5137 3775c42,-1 79,-39 79,-81 0,-42 -38,-80 -79,-80 -42,-1 -81,36 -82,78 -2,44 38,84 82,83z"/>
    <path class="fil1" d="M4766 5226c2,-42 -29,-77 -71,-81 -44,-3 -82,30 -84,74 -2,42 29,77 71,81 44,3 82,-30 84,-74z"/>
    <path class="fil1" d="M6394 2146c43,0 75,-33 74,-76 -2,-42 -35,-73 -78,-72 -41,2 -70,33 -71,74 0,43 32,75 75,74z"/>
    <path class="fil1" d="M8185 1304c40,-2 71,-35 70,-76 -1,-40 -34,-71 -74,-71 -41,1 -72,32 -73,73 0,42 34,75 77,74z"/>
    <path class="fil1" d="M10935 1447c-43,1 -74,33 -73,77 1,43 35,73 78,72 41,-2 71,-33 71,-74 0,-43 -32,-75 -76,-75z"/>
    <path class="fil1" d="M8523 1177c-1,43 31,75 74,76 43,0 75,-32 75,-76 -1,-41 -31,-71 -72,-73 -43,-1 -76,30 -77,73z"/>
    <path class="fil1" d="M5292 7874c0,-42 -34,-75 -76,-74 -40,2 -71,35 -70,75 0,40 33,72 73,72 40,-1 72,-32 73,-73z"/>
    <path class="fil1" d="M5012 7283c1,-43 -32,-76 -75,-76 -40,1 -72,31 -73,72 -1,42 32,76 75,75 40,0 72,-31 73,-71z"/>
    <path class="fil1" d="M7173 1635c40,0 73,-33 72,-72 0,-39 -33,-73 -72,-72 -39,0 -72,33 -72,72 0,39 34,73 72,72z"/>
    <path class="fil1" d="M8930 1125c-1,40 31,73 70,74 40,1 74,-30 76,-69 2,-39 -29,-74 -68,-76 -41,-3 -77,30 -78,71z"/>
    <path class="fil1" d="M5021 3934c1,-39 -32,-73 -72,-73 -39,-1 -73,32 -73,71 -1,40 32,73 71,74 40,1 73,-32 74,-72z"/>
    <path class="fil1" d="M10135 1209c-2,-42 -27,-66 -68,-71 -38,-4 -74,30 -76,69 -1,39 32,74 71,75 39,0 75,-34 73,-73z"/>
    <path class="fil1" d="M7764 1350c40,-1 68,-30 69,-66 1,-39 -30,-70 -69,-69 -38,1 -69,33 -65,71 4,40 28,61 65,64z"/>
    <path class="fil1" d="M4671 6274c0,-41 -23,-64 -63,-67 -39,-3 -70,28 -68,67 2,40 25,61 65,65 40,-4 65,-24 66,-65z"/>
    <path class="fil1" d="M4702 4810c1,-40 -20,-65 -61,-69 -39,-4 -71,26 -70,65 1,41 23,62 64,67 39,-3 65,-22 67,-63z"/>
    <path class="fil1" d="M10710 1280c-41,-2 -66,21 -67,62 -2,41 22,64 62,69 41,-3 66,-22 68,-64 1,-41 -22,-66 -63,-67z"/>
    <path class="fil1" d="M6581 1910c41,-4 65,-26 65,-67 -1,-41 -25,-65 -66,-64 -41,0 -65,24 -64,66 0,41 25,62 65,65z"/>
    <path class="fil1" d="M9484 1075c0,-41 -24,-65 -65,-66 -41,0 -62,24 -66,65 3,40 24,65 65,65 41,1 65,-23 66,-64z"/>
    <path class="fil1" d="M4617 5867c0,-39 -22,-62 -60,-64 -41,-1 -66,20 -67,62 -2,41 22,62 62,67 41,-4 65,-24 65,-65z"/>
    <path class="fil1" d="M4720 6690c1,-38 -21,-61 -59,-64 -37,-4 -68,25 -66,63 1,39 23,58 61,63 38,-4 63,-22 64,-62z"/>
    <path class="fil1" d="M4835 4161c-5,-35 -23,-61 -62,-61 -39,0 -62,22 -63,61 -1,39 22,62 61,63 39,1 59,-23 64,-63z"/>
    <path class="fil1" d="M4517 5391c-33,-5 -71,27 -64,58 6,26 29,48 44,71 8,0 16,1 24,1 17,-22 44,-42 49,-67 8,-34 -18,-58 -53,-63z"/>
    <path class="fil1" d="M5048 7697c6,-34 -20,-57 -56,-61 -33,-3 -70,31 -61,62 7,25 31,45 48,68 8,0 15,0 23,0 16,-23 42,-44 46,-69z"/>
    <path class="fil1" d="M5679 2591c-5,-22 -35,-52 -55,-52 -21,-1 -44,27 -66,43 0,8 1,16 1,24 22,14 42,38 65,41 35,5 62,-22 55,-56z"/>
    <path class="fil1" d="M5502 2819c-1,-20 -31,-49 -53,-54 -34,-8 -63,20 -58,55 3,24 29,45 45,68 8,0 16,0 24,0 16,-23 43,-47 42,-69z"/>
    <path class="fil1" d="M11532 1657c-3,18 22,40 35,60 8,1 16,1 24,1 14,-20 37,-37 41,-59 6,-34 -18,-60 -52,-53 -20,5 -46,31 -48,51z"/>
    <path class="fil1" d="M9837 981c-33,-9 -60,16 -55,50 3,23 25,43 39,65 9,0 17,0 26,0 14,-22 39,-43 38,-64 -1,-18 -28,-46 -48,-51z"/>
    <path class="fil1" d="M6810 1615c0,-35 -21,-58 -55,-51 -21,3 -40,25 -60,39 0,8 0,16 0,24 20,14 38,35 60,39 33,7 55,-15 55,-51z"/>
    <path class="fil1" d="M5863 2357c-18,-16 -35,-39 -56,-45 -33,-8 -61,13 -57,47 3,21 27,51 45,54 20,3 44,-20 66,-32 1,-8 2,-16 2,-24z"/>
    <path class="fil1" d="M7364 1397c14,-22 38,-44 37,-65 -2,-19 -30,-45 -50,-50 -33,-7 -59,18 -53,52 3,23 26,42 41,63 8,0 17,0 25,0z"/>
    <path class="fil1" d="M5262 2995c-34,-1 -60,19 -55,53 3,23 25,43 39,65 8,0 16,0 24,1 15,-21 39,-40 43,-63 7,-33 -16,-55 -51,-56z"/>
    <path class="fil1" d="M4761 7105c8,-33 -17,-59 -51,-53 -23,4 -43,26 -64,41 0,8 1,17 1,25 21,14 44,39 64,37 19,-2 46,-30 50,-50z"/>
    <path class="fil1" d="M10428 1160c4,21 26,39 40,59 8,0 16,0 24,-1 13,-20 38,-41 36,-60 -2,-19 -28,-46 -48,-51 -33,-7 -58,19 -52,53z"/>
    <path class="fil1" d="M5132 3289c-2,-19 -31,-49 -48,-49 -18,0 -47,30 -49,49 -2,18 23,40 36,60 8,0 17,0 25,0 13,-20 39,-42 36,-60z"/>
    <path class="fil1" d="M8777 1021c22,-33 46,-54 44,-71 -2,-19 -30,-34 -46,-51 -17,18 -45,34 -48,54 -3,16 25,36 50,68z"/>
    <path class="fil1" d="M8406 1004c-2,-18 -28,-35 -44,-53 -18,17 -46,31 -51,51 -4,16 23,38 45,71 25,-32 51,-51 50,-69z"/>
    <path class="fil1" d="M4630 4388c-1,-16 -31,-45 -44,-43 -19,4 -45,28 -47,46 -2,17 23,37 36,56 8,0 15,-1 22,-1 12,-19 34,-39 33,-58z"/>
    <path class="fil1" d="M4506 5038c-3,-19 -28,-46 -46,-49 -17,-2 -38,23 -57,36 0,7 0,14 0,21 20,13 39,36 58,35 17,0 47,-30 45,-43z"/>
    <path class="fil1" d="M6043 2111c-19,-11 -40,-34 -58,-32 -16,1 -45,31 -42,44 3,19 28,45 46,47 17,2 37,-24 55,-37 0,-7 0,-14 -1,-22z"/>
    <path class="fil1" d="M11308 1470c-3,14 21,35 42,66 23,-30 47,-47 46,-63 -1,-18 -25,-34 -40,-50 -16,15 -43,28 -48,47z"/>
    <path class="fil1" d="M4897 3474c-15,15 -38,29 -41,46 -3,13 20,31 40,60 20,-28 43,-46 41,-59 -3,-17 -26,-31 -40,-47z"/>
    <path class="fil1" d="M9231 899c-4,-17 -28,-30 -43,-45 -14,15 -38,29 -39,43 0,17 21,34 42,65 21,-31 43,-50 40,-63z"/>
    <path class="fil1" d="M7994 1050c-1,-15 -29,-40 -40,-38 -18,4 -41,27 -43,43 -1,15 22,33 45,65 20,-34 40,-53 38,-70z"/>
    <path class="fil1" d="M5043 8072c-13,13 -36,25 -38,39 -3,14 17,31 35,59 20,-26 40,-42 39,-56 -1,-15 -23,-28 -36,-42z"/>
    <path class="fil1" d="M11087 1291c-1,14 21,37 36,39 13,2 30,-18 58,-36 -27,-19 -42,-40 -56,-38 -14,1 -38,22 -38,35z"/>
    <path class="fil1" d="M4378 6056c-14,13 -37,24 -39,39 -2,13 18,31 36,59 19,-27 40,-43 39,-57 -1,-14 -23,-28 -36,-41z"/>
    <path class="fil1" d="M6166 1856c-14,13 -37,24 -39,39 -2,14 18,31 36,59 20,-27 40,-43 39,-57 -1,-14 -23,-28 -36,-41z"/>
    <path class="fil1" d="M4468 6510c-13,-13 -26,-34 -41,-36 -14,-1 -29,20 -56,39 28,18 45,38 59,36 14,-3 26,-25 38,-39z"/>
    <path class="fil1" d="M4761 7481c-13,0 -40,24 -39,34 3,17 22,41 37,44 14,3 33,-18 65,-37 -30,-21 -46,-41 -63,-41z"/>
    <path class="fil1" d="M4719 3710c-12,12 -32,24 -33,37 -1,13 17,27 35,52 17,-26 34,-41 32,-53 -1,-14 -22,-24 -34,-36z"/>
    <path class="fil1" d="M6980 1391c-2,-15 -19,-38 -32,-41 -14,-3 -31,16 -60,33 26,20 40,39 55,39 13,1 38,-21 37,-31z"/>
    <path class="fil1" d="M10204 980c3,15 23,35 37,37 13,1 29,-19 56,-39 -29,-17 -45,-34 -60,-33 -13,1 -35,25 -33,35z"/>
    <path class="fil1" d="M4437 4631c-3,-13 -19,-29 -30,-30 -11,-1 -23,16 -45,32 24,13 37,27 49,26 10,0 28,-21 26,-28z"/>
    <path class="fil1" d="M4478 6887c-11,2 -28,21 -28,32 1,11 21,28 33,28 12,1 24,-17 44,-34 -23,-13 -37,-29 -49,-26z"/>
    <path class="fil1" d="M4357 5678c-3,-13 -22,-29 -37,-31 -8,-1 -28,21 -28,33 0,14 17,27 35,53 16,-28 33,-44 30,-55z"/>
    <path class="fil1" d="M7540 1065c-12,0 -32,17 -33,28 -1,11 16,30 28,33 11,2 26,-14 49,-27 -21,-17 -33,-34 -44,-34z"/>
    <path class="fil1" d="M9598 877c9,2 23,-16 44,-32 -21,-15 -34,-31 -46,-30 -12,1 -22,18 -34,29 12,11 22,29 36,33z"/>
    <path class="fil1" d="M11609 2892c-1,58 34,105 84,122l0 -241c-49,17 -84,63 -84,119z"/>
    <path class="fil1" d="M11573 2477c0,60 52,113 113,112 2,0 5,0 7,0l0 -222c-2,-1 -4,-1 -6,-1 -60,-1 -113,51 -114,111z"/>
    <path class="fil1" d="M11547 2060c-1,48 34,87 82,88 4,1 9,1 13,0 2,0 4,0 6,-1 1,0 2,0 3,0 2,-1 4,-1 6,-2 3,0 7,-2 10,-3 2,-1 4,-2 6,-3 1,0 1,0 1,0 2,-2 4,-3 6,-4 1,0 1,0 1,-1 2,-1 4,-2 6,-3 2,-2 4,-4 6,-6l0 -126c0,0 0,0 0,0 -2,-2 -4,-3 -6,-5 0,-1 -1,-1 -2,-2 -1,-1 -2,-1 -3,-2 -2,-1 -4,-2 -6,-4 -1,0 -3,-1 -4,-1 -10,-6 -22,-9 -35,-9 -50,-3 -90,35 -90,84z"/>
    <path class="fil1" d="M6193 8260c1,-2 3,-3 4,-4 1,-2 2,-3 3,-5 1,-1 2,-2 3,-4 0,-1 1,-3 2,-4 1,-2 2,-4 3,-5 0,-2 1,-4 2,-5 1,-2 1,-4 2,-6 4,-11 7,-24 7,-37 2,-67 -47,-120 -113,-122 -67,-1 -120,49 -121,115l0 2c0,5 1,11 1,16l0 1c1,5 2,10 4,15 0,3 1,6 2,8 1,3 2,5 3,8 1,2 2,4 3,6 0,0 0,0 0,1 1,2 2,4 4,6 3,5 6,10 9,14 2,3 5,5 7,8l168 0c2,-2 3,-3 4,-4 1,-1 2,-3 3,-4z"/>
    <path class="fil1" d="M6363 8256c-2,-1 -3,-1 -5,-2 -4,-1 -9,-2 -13,-2 -1,0 -2,0 -4,0 -1,-1 -2,-1 -3,-1 -2,0 -4,0 -6,0 -3,0 -5,0 -7,0 -2,0 -3,0 -5,1 -1,0 -3,0 -5,0 -2,0 -3,1 -4,1 -6,1 -13,3 -19,5 -1,0 -2,0 -3,1 -2,1 -4,2 -6,3 -2,0 -4,1 -6,3 -2,0 -4,2 -6,3l120 0c-2,-1 -3,-3 -5,-3 -8,-4 -15,-7 -23,-9z"/>
    <path class="fil1" d="M5689 8145c-49,-2 -94,41 -95,91l0 1c0,2 0,4 0,7 1,0 1,1 1,2 0,1 0,1 0,1 0,2 0,4 1,5 0,1 0,1 0,1 0,3 1,5 1,7 0,0 0,0 0,0 1,3 2,5 2,7 1,0 1,0 1,1l173 0c4,-10 6,-21 6,-32 -1,-48 -42,-89 -90,-91z"/>
    <path class="fil1" d="M5300 8258c-1,-2 -2,-3 -3,-4 -4,-4 -8,-7 -12,-9 -1,0 -2,-1 -3,-1 -1,-1 -3,-2 -5,-2 0,0 -1,-1 -1,-1 -1,0 -1,0 -1,0 -1,0 -2,0 -3,0 -1,0 -4,0 -6,1 -1,0 -2,0 -2,1 -3,1 -6,2 -10,4 -1,1 -1,1 -3,2 -1,1 -3,2 -4,4 -6,4 -11,9 -15,15l77 0c-1,-2 -3,-4 -5,-6 -1,-1 -2,-3 -4,-4z"/>
    <path class="fil1" d="M11077 8160c32,-5 65,-10 97,-14 7,36 13,73 19,108 -35,3 -71,7 -107,10 -3,-33 -6,-68 -9,-104zm-1356 63c-40,3 -75,6 -111,9 -3,-33 -7,-69 -10,-105 33,-3 69,-6 104,-9 5,35 11,70 17,105zm-1467 -32c-34,3 -70,6 -110,10 -3,-34 -6,-68 -9,-103 32,-5 67,-11 103,-16 5,34 10,70 16,109zm-415 52c-35,3 -71,6 -110,10 -3,-32 -7,-67 -10,-105 33,-3 67,-6 103,-9 5,32 11,67 17,104zm-775 -231c37,-3 76,-5 115,-8 3,32 7,68 11,105 -34,5 -71,10 -107,15 -6,-37 -13,-75 -19,-112zm532 -66c3,38 6,73 9,110 -33,3 -68,7 -103,10 -6,-34 -11,-70 -17,-104 35,-5 73,-10 111,-16zm-755 -109c34,-5 72,-10 107,-15 7,37 13,77 20,114 -38,3 -78,8 -119,12 -3,-34 -5,-73 -8,-111zm513 -63c6,35 11,70 17,105 -32,4 -66,7 -100,11 -3,-33 -6,-69 -10,-105 30,-4 62,-8 93,-11zm-751 -125c34,-3 71,-6 108,-9 4,33 7,69 11,105 -33,6 -67,13 -103,20 -5,-38 -11,-77 -16,-116zm419 -42c33,-3 67,-6 104,-9 4,28 7,60 12,92 -34,5 -68,11 -106,17 -3,-31 -6,-63 -10,-100zm-657 -142l115 0c7,34 14,74 21,105 -47,13 -96,25 -136,36l0 -141zm428 -43c34,-5 69,-11 106,-17 3,38 6,73 9,110 -32,4 -68,7 -105,11 -3,-33 -6,-68 -10,-104zm-665 -132c38,-4 81,-8 125,-11 5,34 11,74 17,111 -43,8 -91,17 -133,25 -3,-37 -6,-84 -9,-125zm435 -45c30,-4 62,-8 96,-12 4,33 7,63 11,94 -31,4 -63,8 -95,12 -4,-30 -7,-61 -12,-94zm407 -53c33,-3 68,-7 103,-10 6,34 11,69 17,103 -36,6 -73,11 -110,16 -3,-34 -7,-72 -10,-109zm-655 -137c37,-2 76,-5 115,-8 4,33 7,68 11,103 -36,6 -73,13 -108,19 -6,-37 -12,-75 -18,-114zm531 -50c4,32 7,63 11,95 -33,3 -68,6 -105,9 -3,-29 -7,-61 -12,-94 34,-3 69,-6 106,-10zm-760 -127c36,-2 75,-5 113,-8 7,36 14,74 21,109 -41,5 -85,10 -127,16 -2,-36 -5,-76 -7,-117zm427 -48c34,-6 69,-12 105,-18 3,37 6,74 9,111 -33,3 -69,7 -104,10 -3,-32 -6,-67 -10,-103zm-668 -136c36,-3 81,-6 127,-10 5,34 11,74 16,113 -43,7 -90,16 -132,23 -3,-37 -7,-82 -11,-126zm438 -42c31,-4 63,-8 95,-12 3,31 7,61 11,95 -30,3 -61,7 -95,12 -4,-33 -8,-64 -11,-95zm407 -53c32,-3 66,-6 103,-9 5,32 10,66 16,103 -35,5 -73,11 -110,16 -3,-36 -6,-73 -9,-110zm-657 -136c37,-3 77,-5 117,-8 3,33 6,68 10,102 -37,7 -75,14 -111,21 -5,-37 -10,-75 -16,-115zm423 -50c35,-5 71,-10 110,-15 3,33 6,70 10,110 -34,3 -68,5 -103,9 -6,-33 -11,-68 -17,-104zm-658 -132c37,-3 79,-8 121,-12 6,38 14,80 20,119 -41,6 -87,13 -131,19 -4,-40 -7,-85 -10,-126zm434 -45c29,-3 60,-7 93,-11 5,33 10,68 16,105 -32,4 -64,7 -99,10 -3,-32 -6,-66 -10,-104zm406 -53c33,-3 69,-7 104,-10 4,34 7,69 10,104 -35,5 -70,11 -105,17 -3,-36 -6,-74 -9,-111zm-652 -125c36,-3 73,-6 111,-9 4,30 8,61 11,92 -36,6 -73,13 -109,19 -5,-35 -9,-69 -13,-102zm422 -51c33,-4 68,-7 105,-10 4,32 8,62 12,94 -34,3 -69,7 -105,10 -4,-30 -8,-61 -12,-94zm-662 -148l124 0c3,35 7,74 10,110 -41,7 -84,15 -124,22 -3,-39 -7,-84 -10,-132zm430 -38c35,-5 72,-11 110,-17 2,36 6,73 8,111 -31,2 -66,6 -103,9 -5,-34 -10,-67 -15,-103zm415 -53c31,-4 64,-7 100,-11 3,35 6,69 9,104 -29,4 -61,8 -92,12 -6,-34 -11,-69 -17,-105zm-646 -125c31,-3 65,-7 99,-10 5,33 11,68 16,103 -32,5 -68,10 -104,15 -4,-36 -7,-72 -11,-108zm412 -52c32,-3 66,-6 103,-10 5,33 11,68 16,103 -34,5 -70,10 -110,16 -3,-35 -6,-71 -9,-109zm416 -50c32,-6 67,-11 105,-17 3,34 6,70 9,110 -31,3 -66,6 -105,10 -3,-34 -6,-68 -9,-103zm-645 -125c35,-6 70,-11 105,-17 3,32 7,66 11,100 -34,3 -69,6 -105,10 -4,-31 -8,-62 -11,-93zm509 -65c4,31 8,63 12,95 -31,4 -62,7 -95,11 -3,-30 -7,-61 -11,-94 30,-4 61,-8 94,-12zm-747 -126c32,-3 68,-7 104,-11 3,34 6,69 9,106 -33,5 -69,11 -104,17 -3,-37 -6,-74 -9,-112zm410 -51c36,-3 73,-6 110,-9 3,33 6,67 9,103 -34,6 -68,11 -103,16 -5,-35 -11,-73 -16,-110zm416 -51c34,-3 70,-6 109,-10 3,32 7,67 11,105 -33,3 -67,6 -104,10 -5,-36 -10,-69 -16,-105zm-643 -125c36,-3 71,-6 106,-9 6,34 12,69 17,105 -35,3 -72,6 -111,9 -4,-32 -8,-67 -12,-105zm420 -50c31,-5 66,-11 102,-17 6,36 11,73 17,111 -36,3 -73,6 -110,9 -3,-32 -6,-66 -9,-103zm-677 -151c42,-2 92,-6 144,-9l0 118c-36,6 -77,13 -112,18 -11,-45 -23,-90 -32,-127zm447 -27c29,-3 61,-7 94,-11 3,30 7,62 12,95 -35,4 -65,7 -95,11 -4,-31 -7,-61 -11,-95zm405 -53c33,-3 68,-6 105,-9 3,29 7,61 11,92 -34,6 -69,11 -105,17 -4,-34 -7,-66 -11,-100zm-656 -141c35,-2 75,-4 118,-6 2,32 5,68 8,104 -40,8 -78,16 -114,23 -4,-39 -8,-81 -12,-121zm423 -44c35,-5 72,-11 110,-16 3,34 7,71 10,109 -33,4 -68,7 -103,10 -6,-37 -11,-70 -17,-103zm416 -53c32,-4 65,-7 99,-11 4,36 7,70 10,105 -29,3 -60,7 -92,11 -6,-33 -11,-68 -17,-105zm-645 -126c34,-4 66,-8 98,-11 5,34 10,69 16,106 -32,4 -66,8 -102,13 -4,-34 -8,-70 -12,-108zm410 -51c33,-4 69,-7 104,-10 5,34 11,69 16,103 -35,6 -73,11 -110,16 -3,-35 -6,-72 -10,-109zm417 -50c32,-6 67,-11 105,-17 3,35 6,71 9,109 -32,4 -67,7 -104,11 -3,-32 -7,-67 -10,-103zm-648 -127c35,-4 71,-7 107,-11 4,31 8,63 12,95 -35,4 -71,7 -106,11 -5,-31 -9,-63 -13,-95zm418 -52c34,-4 64,-7 95,-11 3,31 7,61 11,95 -30,3 -61,7 -94,11 -4,-30 -8,-62 -12,-95zm-667 -149c42,-5 91,-11 136,-17l0 125c-38,7 -79,14 -117,20 -6,-42 -13,-88 -19,-128zm433 -39c33,-3 67,-7 101,-10 3,34 6,69 9,105 -30,4 -60,8 -92,12 -6,-35 -12,-71 -18,-107zm406 -52c36,-3 73,-6 110,-9 4,33 7,69 11,105 -34,3 -69,6 -104,10 -5,-35 -11,-71 -17,-106zm-660 -144l126 0c4,34 9,74 14,112 -41,9 -85,18 -123,27 -5,-43 -11,-91 -17,-139zm436 -30c34,-6 70,-12 105,-18 5,37 10,74 15,112 -36,3 -72,6 -109,9 -4,-32 -7,-67 -11,-103zm511 -65c3,34 7,70 10,105 -31,4 -63,8 -94,13 -4,-35 -7,-70 -10,-106 30,-4 62,-8 94,-12zm-760 -129c34,-2 74,-4 117,-7 3,34 6,69 9,106 -34,5 -70,11 -104,17 -7,-38 -15,-78 -22,-116zm425 -37c35,-4 70,-7 106,-11 3,31 7,61 11,94 -36,6 -71,12 -106,17 -4,-33 -7,-67 -11,-100zm418 -50c33,-5 68,-11 103,-16 5,35 10,71 16,110 -36,3 -72,6 -110,9 -3,-32 -6,-67 -9,-103zm-678 -156c43,-3 96,-7 146,-10l0 124c-35,4 -75,10 -109,15 -13,-45 -26,-92 -37,-129zm441 -34c32,-4 66,-8 102,-12 3,34 6,69 9,107 -30,4 -61,8 -92,12 -6,-35 -13,-71 -19,-107zm517 -50c4,31 8,61 11,92 -33,6 -68,11 -105,17 -3,-31 -6,-64 -10,-99 32,-3 67,-6 104,-10zm-793 -157c47,3 102,5 154,8 3,33 7,76 11,116 -41,9 -87,19 -134,29 18,-56 7,-113 -31,-153zm453 -29c36,-3 74,-6 113,-9 3,35 6,74 9,112 -33,4 -68,7 -105,11 -6,-39 -12,-77 -17,-114zm529 -60c3,35 6,72 9,112 -32,3 -67,6 -103,9 -6,-35 -11,-69 -16,-104 35,-5 73,-11 110,-17zm305 -35c32,-3 65,-7 100,-11 3,36 6,69 9,105 -29,3 -61,7 -92,11 -6,-34 -11,-69 -17,-105zm-651 -137c34,-4 70,-8 106,-13 5,40 10,80 15,119 -34,5 -71,10 -106,14 -5,-39 -10,-79 -15,-120zm413 -47c34,-3 71,-6 108,-10 5,38 10,75 15,111 -36,5 -73,10 -110,16 -4,-38 -9,-78 -13,-117zm419 -45c35,-6 72,-13 107,-19 2,36 5,73 8,113 -32,4 -68,8 -104,11 -4,-34 -7,-70 -11,-105zm-671 -145c47,-7 100,-15 147,-22l0 128c-38,4 -78,9 -118,13 -10,-40 -21,-85 -29,-119zm428 -46c35,-4 74,-8 113,-12 3,34 6,72 9,110 -33,4 -67,8 -99,13 -8,-38 -16,-76 -23,-111zm412 -52c34,-2 73,-4 113,-7 6,36 12,76 18,115 -37,5 -77,11 -114,17 -6,-40 -12,-84 -17,-125zm415 -51c37,-3 76,-6 115,-9 6,38 11,78 17,118 -35,3 -74,6 -113,9 -6,-38 -12,-78 -19,-118zm416 -48c43,-11 89,-22 129,-32l0 137c-34,3 -72,6 -110,9 -6,-39 -13,-78 -19,-114zm1205 12c0,7 2,15 -1,21 -29,74 -29,88 3,160 -45,3 -91,6 -133,9 -7,-42 -16,-90 -25,-138 55,11 115,7 156,-52zm-431 218c-33,3 -70,5 -109,8 -6,-35 -13,-70 -18,-102 41,-9 83,-19 127,-29l0 123zm-419 51c-34,3 -69,6 -106,10 -5,-36 -10,-70 -15,-101 37,-3 74,-7 110,-11 3,32 7,67 11,102zm644 135c-33,3 -70,7 -105,10 -5,-36 -10,-75 -15,-113 36,-4 74,-7 113,-11 2,35 5,73 7,114zm657 133l-118 0c-6,-34 -13,-72 -20,-106 42,-6 88,-13 130,-19 2,36 5,78 8,125zm-428 42c-34,5 -68,11 -106,16 -4,-31 -8,-66 -12,-100 35,-4 70,-8 106,-13 4,31 8,63 12,97zm654 137c-36,4 -77,9 -116,14 -5,-39 -11,-81 -16,-119 42,-8 90,-17 132,-25l0 130zm-522 63c-3,-35 -6,-70 -10,-106 29,-4 60,-8 94,-12 5,36 11,72 17,107 -33,3 -67,7 -101,11zm752 115c-36,3 -71,6 -106,9 -5,-33 -11,-69 -17,-104 38,-8 79,-16 116,-24 3,36 5,77 7,119zm247 195l-126 0c-4,-36 -10,-76 -15,-109 47,-15 96,-31 133,-42 2,43 5,97 8,151zm-542 57c-3,-34 -6,-71 -9,-110 32,-3 67,-6 104,-10 6,37 11,72 17,105 -36,5 -74,10 -112,15zm-404 38c-4,-31 -7,-63 -11,-95 30,-3 61,-7 94,-11 4,32 8,63 11,94 -30,4 -62,8 -94,12zm741 123c-30,4 -62,8 -95,12 -6,-36 -11,-69 -17,-106 30,-3 63,-7 100,-12 3,33 7,68 12,106zm-513 63c-3,-31 -6,-66 -10,-103 33,-5 68,-10 106,-17 2,36 5,72 9,110 -32,3 -67,7 -105,10zm-305 43c-37,3 -74,6 -111,9 -3,-34 -7,-69 -10,-105 33,-3 67,-6 103,-9 6,33 12,69 18,105zm640 124c-35,4 -70,7 -106,10 -4,-31 -7,-63 -11,-95 34,-3 70,-6 105,-9 4,31 8,63 12,94zm-521 67c-5,-36 -11,-73 -16,-111 36,-2 73,-5 110,-8 3,32 6,66 9,102 -32,6 -66,11 -103,17zm753 119c-37,5 -72,10 -110,15 -3,-33 -6,-69 -9,-109 31,-3 67,-6 102,-9 6,33 11,68 17,103zm-515 64c-4,-36 -7,-69 -10,-105 30,-3 61,-7 93,-11 5,34 10,69 16,105 -31,3 -64,7 -99,11zm-310 31c-34,3 -69,6 -105,10 -4,-30 -8,-62 -11,-93 35,-6 70,-11 105,-17 3,33 7,66 11,100zm643 135c-32,3 -66,6 -103,9 -5,-31 -10,-66 -16,-103 37,-5 74,-10 110,-16 3,36 6,73 9,110zm-521 68c-3,-37 -6,-74 -9,-111 34,-3 69,-7 105,-10 3,33 6,67 9,103 -33,5 -69,12 -105,18zm751 107c-35,6 -71,11 -106,17 -3,-32 -7,-66 -10,-100 33,-3 69,-6 105,-10 3,31 7,62 11,93zm-510 64c-4,-30 -8,-62 -12,-94 30,-4 61,-7 95,-12 3,32 7,62 11,95 -30,4 -62,7 -94,11zm-312 42c-33,3 -67,6 -103,9 -5,-32 -11,-66 -17,-103 36,-5 73,-11 111,-16 3,36 6,73 9,110zm649 135c-34,3 -70,6 -109,10 -3,-32 -7,-67 -10,-103 35,-6 69,-11 103,-16 5,34 10,70 16,109zm-525 62c-4,-36 -7,-70 -11,-105 33,-3 69,-7 104,-10 5,34 11,69 17,105 -35,3 -72,7 -110,10zm749 115c-32,3 -66,6 -103,9 -5,-33 -11,-69 -17,-105 36,-3 73,-6 111,-9 3,34 6,69 9,105zm-519 66c-5,-35 -11,-73 -16,-110 36,-3 73,-6 110,-9 3,33 6,67 9,103 -32,5 -67,10 -103,16zm-407 49c-3,-35 -6,-70 -10,-106 31,-4 63,-8 95,-12 3,35 6,70 9,106 -31,4 -63,8 -94,12zm740 112c-30,4 -61,8 -94,12 -4,-30 -8,-62 -12,-94 31,-4 62,-8 95,-12 3,30 7,61 11,94zm-510 63c-4,-29 -8,-61 -12,-92 34,-6 69,-11 105,-17 4,31 7,64 11,100 -35,3 -69,6 -104,9zm753 126c-39,3 -74,6 -110,9 -3,-33 -6,-68 -9,-103 34,-5 69,-11 103,-16 5,36 11,73 16,110zm-526 66c-3,-36 -6,-73 -9,-110 32,-3 66,-6 103,-9 5,32 10,67 16,103 -35,5 -73,11 -110,16zm-405 38c-3,-34 -7,-64 -10,-95 30,-4 60,-7 94,-11 3,30 7,61 11,94 -30,4 -62,8 -95,12zm739 123c-30,4 -61,8 -93,12 -5,-34 -10,-69 -16,-105 31,-4 64,-8 100,-11 3,35 6,68 9,104zm-510 63c-3,-32 -6,-67 -10,-103 35,-6 69,-11 105,-17 3,34 6,71 10,110 -32,3 -67,6 -105,10zm-306 42c-34,3 -71,7 -111,10 -3,-34 -6,-68 -9,-105 32,-3 67,-6 103,-9 5,32 11,67 17,104zm641 125c-34,3 -69,6 -106,10 -3,-30 -7,-61 -12,-95 36,-3 70,-6 105,-9 4,29 8,61 13,94zm-521 67c-5,-37 -11,-74 -16,-111 35,-3 72,-6 110,-9 3,33 6,68 9,103 -34,6 -69,11 -103,17zm753 119c-35,5 -72,10 -110,16 -3,-35 -6,-72 -10,-110 33,-3 68,-7 103,-10 6,34 11,69 17,104zm-515 64c-4,-33 -7,-68 -10,-105 29,-4 61,-8 93,-12 5,35 10,70 16,106 -34,3 -66,7 -99,11zm-310 31c-36,3 -70,6 -105,9 -4,-29 -8,-61 -12,-92 34,-6 70,-11 105,-17 4,32 8,65 12,100zm643 135c-33,3 -68,6 -103,9 -6,-34 -11,-69 -16,-103 36,-5 73,-11 110,-16 3,39 6,74 9,110zm-521 67c-3,-35 -6,-71 -9,-111 34,-3 68,-6 104,-9 3,32 7,67 10,103 -32,5 -67,11 -105,17zm751 108c-34,5 -68,10 -106,16 -3,-32 -6,-64 -10,-99 32,-3 66,-6 104,-10 4,29 8,60 12,93zm-510 64c-4,-30 -8,-61 -12,-95 33,-4 64,-7 95,-11 3,31 7,63 11,95 -31,3 -61,7 -94,11zm-415 51c-6,-34 -12,-69 -17,-103 36,-5 73,-11 111,-16 3,37 6,73 9,110 -33,3 -68,6 -103,9zm752 126c-35,3 -72,6 -110,9 -3,-33 -6,-68 -9,-103 35,-5 70,-11 103,-16 6,36 11,73 16,110zm-526 61c-3,-32 -6,-67 -10,-105 33,-3 68,-6 104,-9 5,33 11,69 17,105 -38,3 -74,6 -111,9zm750 115c-32,3 -66,6 -103,10 -5,-34 -12,-70 -18,-105 37,-3 74,-6 111,-9 3,34 7,69 10,104zm-520 67c-5,-37 -10,-74 -15,-110 35,-3 72,-6 109,-9 4,33 7,68 10,103 -35,5 -70,11 -104,16zm-406 49c-4,-35 -7,-71 -10,-106 31,-4 63,-8 95,-12 3,35 6,70 9,105 -31,4 -63,9 -94,13zm740 112c-31,4 -63,8 -95,12 -4,-31 -7,-63 -11,-95 31,-4 61,-7 94,-11 4,30 8,61 12,94zm-511 63c-3,-30 -7,-60 -11,-93 36,-6 71,-11 106,-17 3,33 7,67 10,100 -34,3 -69,6 -105,10zm749 125c-34,4 -69,7 -105,10 -3,-32 -6,-66 -9,-103 33,-5 69,-11 105,-18 3,37 6,74 9,111zm-521 66c-3,-33 -6,-69 -10,-109 32,-3 67,-6 103,-9 6,32 11,67 17,103 -37,5 -72,10 -110,15zm-405 49c-4,-35 -7,-70 -10,-105 30,-4 60,-7 92,-11 6,34 12,70 18,105 -34,4 -67,7 -100,11zm739 113c-30,4 -61,8 -93,12 -5,-35 -11,-70 -16,-106 34,-4 66,-7 99,-11 3,33 6,68 10,105zm-509 63c-5,-34 -11,-70 -16,-104 35,-5 72,-10 110,-16 3,35 6,72 9,110 -35,3 -69,6 -103,10zm-312 42c-34,3 -70,7 -105,10 -4,-34 -7,-70 -10,-105 34,-4 69,-7 105,-10 3,34 6,69 10,105zm645 124c-34,4 -69,7 -105,11 -4,-31 -8,-63 -12,-95 34,-3 69,-7 106,-10 4,33 7,64 11,94zm-521 67c-4,-31 -7,-64 -11,-99 35,-3 69,-7 105,-10 3,30 7,61 11,93 -34,5 -69,10 -105,16zm754 122c-35,6 -73,13 -111,19 -3,-39 -6,-77 -8,-115 33,-4 70,-8 107,-12 4,34 8,71 12,108zm-515 61c-3,-32 -7,-66 -10,-104 28,-4 59,-8 92,-12 6,36 11,69 17,105 -31,4 -63,7 -99,11zm-306 42c-37,3 -74,6 -111,9 -3,-32 -5,-66 -9,-102 32,-6 67,-11 103,-17 5,35 11,73 17,110zm647 132c-34,3 -74,6 -112,9 -5,-35 -9,-72 -14,-110 36,-6 76,-13 113,-19 4,37 8,79 13,120zm-527 59c-6,-37 -11,-74 -16,-110 36,-3 73,-6 110,-9 3,33 6,66 9,103 -32,5 -67,10 -103,16zm-833 -4c37,-6 70,-11 104,-16 5,35 10,71 15,110 -34,3 -70,6 -109,9 -3,-32 -6,-67 -10,-103zm-2005 -74c-30,4 -61,8 -94,12 -4,-31 -8,-63 -12,-95 31,-4 63,-7 95,-11 3,30 7,61 11,94zm416 -53c-34,5 -68,11 -106,17 -3,-32 -6,-64 -10,-99 32,-3 66,-7 104,-10 4,28 8,60 12,92zm300 -133c37,-5 71,-11 104,-16 5,35 10,72 15,110 -34,3 -71,6 -109,9 -3,-32 -7,-67 -10,-103zm-946 8c-33,6 -69,12 -105,18 -3,-37 -6,-74 -9,-111 34,-3 69,-7 105,-10 3,33 6,67 9,103zm416 -49c-33,2 -66,5 -103,9 -5,-35 -10,-68 -16,-103 35,-5 73,-11 110,-17 3,37 6,74 9,111zm297 -147c30,-4 63,-7 100,-11 2,34 5,67 8,104 -28,4 -59,8 -92,12 -5,-33 -10,-68 -16,-105zm-941 11c-34,3 -69,7 -105,10 -3,-30 -7,-60 -11,-92 35,-6 70,-12 106,-18 3,33 7,67 10,100zm410 -42c-32,4 -66,8 -100,11 -3,-35 -6,-69 -9,-105 30,-3 60,-7 93,-11 5,35 10,69 16,105zm297 -146c33,-4 68,-7 103,-10 5,35 11,70 16,103 -37,6 -74,11 -111,16 -2,-35 -5,-72 -8,-109zm-946 11c-31,3 -62,7 -93,11 -6,-35 -11,-70 -17,-105 32,-4 66,-8 100,-11 3,33 6,69 10,105zm415 -53c-36,5 -69,11 -103,16 -5,-35 -10,-71 -16,-110 34,-3 71,-6 110,-9 3,32 6,67 9,103zm418 -50c-35,3 -70,6 -106,9 -4,-31 -8,-63 -12,-94 35,-4 70,-7 106,-10 4,31 8,63 12,95zm299 -137c33,-4 63,-7 94,-11 4,31 8,63 11,95 -31,4 -61,7 -94,11 -4,-30 -7,-61 -11,-95zm-940 12c-38,4 -73,6 -110,10 -3,-33 -7,-69 -10,-105 33,-4 68,-7 103,-10 5,34 11,69 17,105zm410 -52c-33,3 -69,7 -104,10 -3,-34 -7,-69 -10,-104 35,-5 70,-11 105,-17 3,36 6,74 9,111zm297 -147c30,-3 63,-7 99,-11 3,32 6,67 10,105 -29,3 -60,7 -93,11 -5,-35 -10,-69 -16,-105zm-940 12c-35,3 -68,6 -105,9 -3,-29 -7,-60 -11,-92 33,-5 68,-11 105,-17 3,31 7,64 11,100zm405 -53c-30,3 -62,7 -94,11 -4,-30 -8,-62 -12,-94 31,-4 61,-8 95,-12 4,32 7,62 11,95zm301 -136c32,-3 66,-6 103,-9 5,34 10,68 16,103 -35,5 -73,10 -110,16 -3,-36 -6,-73 -9,-110zm-946 11c-30,4 -62,8 -93,11 -5,-35 -11,-70 -17,-105 33,-4 66,-7 100,-11 3,34 7,69 10,105zm416 -53c-34,5 -69,11 -104,16 -5,-34 -10,-71 -16,-110 35,-3 71,-6 110,-9 3,32 6,68 10,103zm416 -50c-34,3 -69,6 -105,10 -3,-30 -7,-60 -11,-93 34,-5 70,-11 106,-17 3,33 7,67 10,100zm300 -136c30,-3 62,-7 94,-11 4,30 8,62 12,94 -31,4 -61,8 -94,12 -4,-30 -8,-62 -12,-95zm-940 12c-35,3 -72,6 -110,9 -3,-33 -6,-68 -10,-103 34,-6 70,-11 103,-17 6,39 12,75 17,111zm400 -54c-29,4 -60,8 -94,12 -3,-33 -6,-67 -10,-105 29,-4 61,-8 95,-12 3,35 6,69 9,105zm297 -146c35,-3 72,-6 109,-9 4,32 7,68 10,103 -34,5 -70,11 -103,16 -6,-36 -11,-73 -16,-110zm-940 11c-31,4 -62,8 -95,12 -3,-31 -7,-63 -11,-95 30,-4 61,-7 94,-11 4,31 8,62 12,94zm416 -53c-35,6 -70,11 -106,17 -3,-34 -7,-66 -11,-100 33,-3 68,-6 105,-9 4,29 8,61 12,92zm420 -39c-35,3 -72,6 -110,9 -3,-32 -7,-68 -11,-105 33,-3 69,-6 104,-10 6,37 11,71 17,106zm296 -147c32,-4 62,-8 93,-11 5,34 10,69 16,105 -31,3 -65,7 -99,11 -4,-33 -7,-68 -10,-105zm-946 11c-32,3 -67,7 -103,10 -6,-36 -11,-70 -17,-105 35,-3 72,-6 110,-10 3,33 7,68 10,105zm416 -51c-33,2 -67,5 -103,9 -5,-32 -11,-67 -17,-103 36,-5 74,-11 111,-17 3,37 6,74 9,111zm300 -136c30,-4 61,-8 95,-12 4,33 7,63 11,94 -31,4 -62,8 -94,12 -4,-30 -8,-61 -12,-94zm-940 11c-34,3 -71,6 -110,10 -3,-33 -6,-68 -9,-103 36,-6 70,-12 103,-17 5,35 10,72 16,110zm406 -52c-33,3 -65,6 -99,10 -3,-32 -7,-67 -10,-104 28,-4 60,-8 92,-12 5,33 11,68 17,106zm410 -54c-32,5 -67,11 -104,17 -3,-35 -7,-71 -10,-110 32,-3 67,-7 105,-10 3,33 6,67 9,103zm297 -144c35,-5 72,-10 110,-16 3,34 6,71 10,110 -33,3 -68,6 -104,10 -5,-34 -10,-69 -16,-104zm-940 9c-33,5 -68,10 -105,16 -4,-30 -7,-63 -11,-100 33,-2 67,-5 104,-8 4,28 8,59 12,92zm416 -50c-35,3 -70,6 -105,9 -4,-30 -8,-60 -11,-92 34,-6 70,-11 105,-17 4,33 7,66 11,100zm409 -43c-31,4 -65,8 -99,12 -3,-34 -7,-69 -10,-105 30,-4 61,-8 93,-12 5,35 11,70 16,105zm296 -146c33,-3 69,-7 104,-10 5,34 11,70 16,104 -36,5 -73,10 -110,16 -3,-35 -6,-72 -10,-110zm-945 11c-30,4 -60,7 -93,11 -5,-33 -10,-68 -16,-105 31,-3 65,-7 99,-11 3,37 7,70 10,105zm415 -53c-32,5 -67,11 -103,16 -5,-36 -10,-72 -15,-110 33,-2 69,-5 109,-9 3,32 6,67 9,103zm301 -133c34,-5 70,-11 105,-16 4,31 8,64 11,99 -33,3 -68,6 -104,10 -4,-30 -8,-62 -12,-93zm-940 9c-36,5 -73,10 -110,16 -3,-35 -6,-72 -10,-110 36,-3 70,-7 104,-10 5,34 11,70 16,104zm416 -50c-35,3 -72,6 -110,9 -3,-33 -7,-68 -10,-103 34,-6 69,-11 104,-17 5,36 10,73 16,111zm400 -54c-29,4 -61,8 -94,12 -3,-33 -7,-69 -10,-105 30,-4 62,-8 95,-12 3,36 6,70 9,105zm297 -146c34,-3 71,-7 110,-10 3,33 6,68 9,103 -37,6 -70,11 -103,17 -5,-35 -11,-72 -16,-110zm-940 11c-31,4 -63,8 -95,12 -4,-31 -7,-63 -11,-95 31,-4 61,-7 94,-11 4,30 8,61 12,94zm415 -53c-33,5 -68,11 -105,17 -3,-33 -7,-65 -10,-99 31,-3 66,-7 104,-10 3,28 7,60 11,92zm300 -135c33,-3 69,-6 104,-10 5,34 11,70 17,106 -38,3 -74,6 -110,9 -4,-32 -7,-68 -11,-105zm-945 11c-29,4 -61,8 -94,12 -3,-33 -7,-68 -10,-105 30,-4 61,-8 95,-12 3,36 6,70 9,105zm416 -51c-32,3 -67,6 -103,10 -5,-33 -11,-68 -17,-106 36,-3 72,-5 110,-8 3,31 6,66 10,104zm416 -52c-33,3 -68,7 -103,10 -6,-37 -11,-70 -17,-103 35,-6 72,-11 110,-16 3,34 7,71 10,109zm300 -136c31,-3 63,-7 95,-11 3,31 7,61 11,94 -30,4 -61,8 -95,12 -3,-33 -7,-64 -11,-95zm-940 12c-36,3 -71,6 -110,9 -2,-32 -6,-67 -9,-103 33,-5 68,-10 103,-16 5,35 10,71 16,110zm406 -53c-33,4 -67,7 -100,11 -3,-34 -6,-69 -9,-105 29,-3 59,-7 92,-11 5,34 11,70 17,105zm410 -53c-35,6 -70,11 -105,17 -3,-36 -6,-73 -9,-111 34,-3 69,-6 105,-10 3,34 6,69 9,104zm297 -144c34,-5 71,-10 111,-16 2,35 5,71 8,109 -31,3 -66,7 -103,10 -5,-32 -10,-67 -16,-103zm-940 9c-34,5 -69,10 -105,16 -4,-32 -8,-65 -12,-99 37,-4 71,-7 106,-10 3,30 7,60 11,93zm415 -51c-32,3 -66,6 -104,10 -4,-29 -8,-60 -12,-92 37,-6 70,-11 106,-17 3,31 6,64 10,99zm410 -42c-31,4 -64,8 -99,12 -4,-36 -7,-70 -10,-105 30,-4 61,-8 93,-12 5,34 10,69 16,105zm296 -146c36,-4 70,-7 104,-10 5,34 11,69 16,104 -35,5 -73,10 -110,16 -3,-35 -7,-72 -10,-110zm-945 11c-29,3 -60,7 -93,11 -6,-36 -11,-69 -16,-105 30,-3 63,-7 99,-11 3,32 6,67 10,105zm415 -53c-32,5 -66,10 -103,16 -5,-35 -11,-73 -16,-110 36,-3 73,-6 110,-9 3,32 6,66 9,103zm300 -135c35,-3 70,-6 106,-10 4,31 8,63 12,95 -35,3 -70,6 -106,9 -4,-31 -8,-62 -12,-94zm-939 11c-36,5 -73,10 -110,16 -3,-35 -7,-72 -10,-110 33,-3 68,-7 104,-10 5,34 11,70 16,104zm416 -50c-37,3 -73,6 -110,9 -3,-33 -7,-68 -10,-105 33,-3 68,-7 103,-10 6,34 11,69 17,106zm410 -53c-33,3 -69,7 -104,10 -3,-32 -6,-66 -9,-103 33,-5 69,-12 105,-18 2,37 5,74 8,111zm297 -147c32,-3 64,-7 99,-10 3,32 6,66 10,104 -29,4 -60,8 -92,12 -6,-34 -11,-68 -17,-106zm-941 12c-31,3 -66,6 -104,9 -3,-28 -7,-59 -11,-92 33,-5 68,-11 105,-16 4,32 7,64 10,99zm406 -53c-29,3 -61,7 -94,11 -4,-33 -8,-63 -12,-94 31,-4 63,-7 95,-11 4,30 7,61 11,94zm420 -42c-35,5 -73,11 -110,16 -3,-36 -6,-73 -9,-110 32,-3 66,-6 103,-9 5,31 10,66 16,103zm297 -144c32,-5 67,-11 103,-16 5,34 10,71 16,110 -35,3 -71,6 -109,9 -3,-32 -7,-66 -10,-103zm-947 8c-32,5 -66,11 -103,17 -5,-37 -11,-74 -16,-111 36,-3 73,-5 110,-8 3,32 6,66 9,102zm416 -50c-32,3 -66,6 -102,9 -5,-31 -11,-66 -17,-102 36,-6 73,-11 111,-17 3,36 5,73 8,110zm407 -52c-31,3 -61,7 -94,11 -4,-30 -8,-62 -12,-94 30,-4 62,-8 95,-12 3,31 7,63 11,95zm300 -137c33,-3 67,-6 104,-9 4,28 8,60 12,92 -33,5 -68,11 -105,17 -4,-31 -7,-63 -11,-100zm-940 12c-33,4 -67,7 -100,11 -3,-34 -6,-70 -10,-105 30,-4 60,-7 93,-11 5,34 11,70 17,105zm410 -53c-32,5 -67,10 -105,16 -3,-34 -6,-70 -9,-109 32,-3 66,-7 105,-11 3,34 6,68 9,104zm417 -50c-33,2 -67,5 -103,9 -6,-33 -12,-69 -18,-105 36,-3 73,-6 111,-9 3,34 6,69 10,105zm296 -146c34,-5 71,-10 110,-16 3,34 6,71 9,110 -32,3 -67,6 -103,9 -5,-33 -11,-68 -16,-103zm-940 10c-33,3 -68,7 -105,10 -4,-29 -8,-61 -12,-94 33,-3 68,-7 105,-10 4,32 8,62 12,94zm419 -41c-34,3 -70,6 -109,10 -3,-32 -7,-67 -10,-103 36,-6 70,-11 103,-17 5,35 11,71 16,110zm406 -52c-32,3 -66,7 -99,11 -4,-34 -7,-69 -10,-106 30,-3 61,-7 93,-11 5,35 11,71 16,106zm1357 -63c33,-5 67,-10 103,-15 6,36 11,73 16,110 -35,2 -72,5 -110,8 -3,-33 -6,-68 -9,-103zm-301 134c-35,5 -70,11 -105,17 -4,-33 -8,-67 -11,-100 34,-3 69,-7 105,-10 4,30 7,62 11,93zm940 -10c36,-5 74,-10 111,-16 3,36 6,73 9,111 -33,3 -68,6 -103,10 -6,-34 -11,-69 -17,-105zm-1450 74c-4,-31 -7,-62 -11,-94 30,-4 61,-8 94,-12 4,31 8,63 11,95 -30,3 -60,7 -94,11zm1034 -23c36,-3 73,-6 110,-9 3,33 7,68 10,103 -35,6 -70,11 -104,16 -5,-36 -10,-73 -16,-110zm-400 53c32,-4 62,-7 94,-11 3,33 7,68 10,105 -30,3 -61,7 -94,12 -3,-34 -7,-69 -10,-106zm-416 53c34,-5 67,-10 103,-16 5,35 11,73 17,110 -36,3 -73,6 -110,9 -3,-33 -7,-68 -10,-103zm-296 146c-35,3 -72,6 -110,10 -3,-33 -7,-68 -10,-106 35,-3 69,-6 103,-9 5,33 11,68 17,105zm940 -10c33,-6 68,-11 105,-17 3,31 7,63 11,99 -32,3 -67,6 -105,10 -4,-31 -7,-61 -11,-92zm-420 39c34,-3 70,-6 109,-9 4,31 7,66 10,104 -32,3 -66,6 -103,10 -5,-35 -11,-69 -16,-105zm-415 52c33,-3 70,-6 109,-9 3,31 6,66 9,102 -32,6 -68,11 -103,17 -5,-37 -10,-73 -15,-110zm-298 146c-29,4 -60,8 -94,12 -3,-33 -6,-68 -9,-105 29,-3 60,-7 94,-12 3,36 6,70 9,105zm946 -11c33,-3 68,-6 104,-9 5,34 11,69 16,103 -39,6 -74,11 -110,16 -3,-35 -7,-72 -10,-110zm-406 54c31,-4 62,-8 95,-12 3,31 7,62 11,94 -31,4 -61,8 -94,12 -4,-30 -8,-62 -12,-94zm-300 136c-34,2 -67,5 -104,8 -4,-28 -8,-59 -12,-92 34,-5 69,-10 106,-16 3,30 7,63 10,100zm941 -12c31,-4 64,-8 99,-12 3,34 6,69 10,105 -30,4 -61,8 -93,12 -5,-34 -11,-70 -16,-105zm-1461 78c-5,-36 -10,-73 -15,-111 34,-2 71,-6 109,-9 4,36 7,70 10,103 -34,6 -69,11 -104,17zm1050 -25c34,-6 69,-11 105,-17 3,35 6,72 10,110 -33,3 -69,7 -105,11 -4,-33 -7,-69 -10,-104zm-417 50c33,-3 69,-6 104,-10 5,35 11,70 17,104 -36,5 -74,11 -111,16 -3,-35 -6,-72 -10,-110zm-296 146c-31,4 -65,8 -99,12 -3,-35 -6,-70 -9,-105 30,-4 60,-8 92,-11 6,35 11,68 16,104zm941 -11c32,-3 67,-6 104,-10 4,30 8,61 12,93 -37,6 -71,11 -105,16 -4,-31 -7,-64 -11,-99zm-1455 64c-3,-30 -7,-62 -11,-93 34,-5 69,-11 105,-17 4,34 7,66 11,100 -33,3 -68,6 -105,10zm1045 -22c31,-3 64,-7 100,-11 3,33 6,68 9,105 -29,4 -61,8 -92,11 -6,-37 -11,-70 -17,-105zm-296 147c-33,3 -68,6 -103,10 -6,-35 -11,-70 -17,-104 36,-5 73,-10 110,-16 4,35 7,72 10,110zm945 -11c30,-4 62,-8 93,-12 6,35 11,70 17,105 -32,4 -65,8 -100,12 -3,-33 -6,-69 -10,-105zm-1466 73c-3,-33 -7,-69 -10,-105 33,-3 69,-7 105,-11 3,34 7,70 11,106 -34,3 -70,7 -106,10zm1051 -20c32,-5 67,-11 103,-17 5,36 11,73 17,111 -36,3 -73,6 -111,9 -2,-33 -6,-66 -9,-103zm-418 50c35,-3 70,-7 106,-10 4,30 8,62 12,94 -34,4 -69,7 -105,11 -4,-31 -8,-63 -13,-95zm-299 135c-35,5 -70,11 -105,17 -4,-33 -7,-66 -11,-100 34,-3 69,-7 105,-10 4,30 7,62 11,93zm940 -11c36,-3 73,-6 110,-9 3,33 7,69 11,105 -34,3 -69,6 -104,10 -6,-35 -11,-70 -17,-106zm-1449 75c-5,-35 -11,-70 -17,-105 33,-4 66,-8 100,-11 3,34 7,69 10,105 -30,4 -62,7 -93,11zm1039 -23c34,-3 69,-6 105,-9 2,32 5,66 9,103 -34,5 -70,11 -105,17 -3,-36 -6,-73 -9,-111zm-297 147c-31,4 -65,8 -99,12 -3,-35 -7,-70 -10,-106 30,-3 61,-7 93,-11 5,35 10,69 16,105zm940 -12c34,-2 68,-5 105,-8 3,28 7,59 12,92 -34,5 -68,10 -105,16 -4,-32 -8,-65 -12,-100zm-405 54c30,-4 61,-8 94,-12 4,30 8,61 12,94 -31,4 -62,8 -95,12 -4,-34 -7,-64 -11,-94zm-1060 -83c34,-5 70,-11 104,-16 5,35 10,72 16,110 -35,3 -72,7 -110,10 -3,-36 -7,-70 -10,-104zm-300 134c-36,5 -71,11 -106,16 -3,-32 -7,-66 -11,-99 34,-3 70,-7 106,-10 3,30 7,62 11,93zm940 -9c34,-5 71,-10 110,-16 3,34 6,70 9,109 -31,3 -66,7 -103,10 -5,-35 -10,-69 -16,-103zm-297 144c-32,5 -67,10 -103,16 -5,-37 -11,-74 -16,-110 36,-3 73,-6 110,-9 3,32 6,67 9,103zm946 -9c36,-5 70,-11 104,-16 5,35 10,71 15,110 -33,3 -70,6 -109,10 -3,-33 -6,-68 -10,-104zm-415 51c31,-3 66,-7 102,-10 6,33 11,68 17,103 -35,5 -71,10 -111,16 -2,-36 -5,-71 -8,-109zm-1050 -83c31,-4 61,-7 94,-11 3,32 6,67 10,104 -29,4 -61,8 -94,12 -4,-32 -7,-67 -10,-105zm-297 147c-35,3 -72,6 -109,9 -4,-33 -7,-68 -10,-103 34,-5 69,-11 103,-17 6,37 11,74 16,111zm1046 71c-30,4 -61,8 -94,12 -4,-31 -8,-62 -12,-95 31,-3 63,-7 95,-11 4,31 7,61 11,94zm940 -11c36,-3 73,-6 110,-9 3,33 6,68 10,103 -35,5 -70,11 -104,16 -5,-37 -11,-74 -16,-110zm-405 52c32,-3 64,-6 99,-10 3,32 6,66 10,104 -29,4 -60,8 -93,12 -5,-33 -10,-68 -16,-106zm-1056 -71c34,-5 69,-10 104,-16 4,31 8,64 12,99 -33,3 -68,7 -105,10 -4,-32 -8,-63 -11,-93zm-301 135c-32,3 -67,7 -103,10 -5,-33 -11,-69 -17,-105 35,-3 72,-6 111,-10 3,35 6,69 9,105zm946 -10c35,-6 70,-11 105,-17 3,35 6,73 9,110 -33,3 -68,7 -104,11 -3,-34 -7,-69 -10,-104zm-296 146c-35,3 -72,6 -110,9 -4,-35 -7,-69 -10,-105 32,-3 67,-6 103,-10 5,34 11,69 17,106zm940 -11c35,-5 70,-11 105,-17 4,33 7,66 11,100 -37,3 -71,7 -105,10 -4,-30 -8,-62 -11,-93zm-417 50c35,-3 70,-6 106,-9 3,31 8,63 12,94 -36,3 -71,7 -106,10 -4,-32 -8,-63 -12,-95zm-1059 -83c34,-3 68,-6 103,-9 5,32 11,67 17,103 -35,5 -71,10 -110,15 -3,-33 -6,-69 -10,-109zm-300 136c-31,4 -62,7 -95,12 -3,-31 -7,-63 -11,-95 30,-4 61,-7 94,-11 4,29 8,61 12,94zm940 -11c35,-4 72,-7 110,-10 3,36 6,70 9,103 -34,6 -69,11 -103,17 -5,-36 -11,-73 -16,-110zm-296 146c-31,4 -62,8 -93,11 -6,-35 -11,-70 -17,-105 32,-3 66,-7 100,-11 3,34 6,69 10,105zm945 -11c36,-3 70,-6 103,-10 6,34 11,70 17,104 -36,5 -73,10 -110,16 -3,-35 -7,-72 -10,-110zm-1456 74c-3,-32 -6,-68 -10,-103 37,-6 71,-11 106,-17 3,35 6,71 9,110 -32,3 -68,7 -105,10zm1050 -21c31,-4 61,-8 94,-12 4,30 8,62 12,95 -31,4 -62,7 -95,12 -3,-32 -7,-63 -11,-95zm-300 136c-34,3 -69,6 -105,9 -3,-29 -7,-59 -11,-92 34,-5 70,-11 106,-17 3,33 7,66 10,100zm940 -12c31,-3 64,-7 100,-11 3,33 6,67 9,105 -30,4 -61,7 -92,11 -5,-33 -11,-68 -17,-105zm-410 54c35,-6 70,-12 105,-18 3,36 6,74 9,111 -34,3 -69,7 -105,10 -3,-34 -6,-69 -9,-103zm-1062 -75c33,-3 69,-6 105,-10 4,30 8,62 12,93 -35,5 -70,11 -106,16 -3,-31 -7,-64 -11,-99zm-300 136c-29,3 -60,7 -93,11 -5,-33 -10,-68 -16,-105 32,-4 64,-7 99,-10 3,31 6,66 10,104zm945 -11c33,-3 68,-7 103,-10 6,37 12,70 17,104 -35,5 -72,10 -110,15 -3,-34 -6,-71 -10,-109zm-296 147c-34,3 -66,7 -99,10 -3,-33 -6,-68 -10,-104 30,-4 61,-8 93,-12 5,34 11,70 16,106zm940 -12c34,-3 69,-7 105,-10 4,30 8,61 12,93 -35,5 -70,11 -105,16 -4,-31 -8,-64 -12,-99zm-410 42c33,-4 67,-7 100,-11 3,34 7,69 10,105 -30,4 -60,7 -92,11 -6,-34 -12,-70 -18,-105zm-1055 -71c34,-6 69,-11 104,-17 5,35 10,72 16,110 -34,3 -71,6 -110,10 -3,-35 -6,-69 -10,-103zm-299 134c-34,3 -70,7 -106,10 -4,-30 -8,-62 -12,-94 37,-4 71,-7 105,-10 4,30 9,62 13,94zm1058 83c-31,3 -66,7 -103,10 -5,-32 -10,-67 -16,-103 37,-5 72,-10 110,-16 3,34 6,70 9,109zm947 -10c28,-4 59,-8 92,-12 5,33 11,68 16,106 -32,3 -64,6 -99,10 -3,-32 -6,-67 -9,-104zm-416 53c32,-6 67,-11 103,-17 5,35 11,73 16,110 -36,3 -73,6 -110,9 -3,-32 -6,-66 -9,-102zm-1066 -86c35,-3 72,-6 110,-10 3,34 7,69 10,106 -36,3 -70,6 -103,9 -6,-34 -12,-69 -17,-105zm-296 146c-35,5 -70,11 -105,17 -3,-36 -7,-73 -10,-110 33,-4 69,-7 105,-11 4,36 7,70 10,104zm944 -10c33,-3 68,-7 106,-10 3,29 7,60 12,95 -35,3 -69,6 -106,9 -3,-29 -7,-60 -12,-94zm-299 134c-35,6 -69,11 -105,17 -3,-30 -7,-63 -11,-99 32,-3 67,-6 105,-10 3,29 7,60 11,92zm940 -10c35,-3 72,-6 110,-10 3,33 7,68 10,106 -35,3 -69,6 -103,9 -5,-33 -11,-68 -17,-105zm-411 52c33,-3 68,-6 105,-10 3,33 7,68 10,104 -33,5 -69,10 -105,16 -3,-34 -7,-71 -10,-110zm-1050 -72c33,-4 63,-7 94,-11 4,31 7,62 11,95 -30,3 -60,7 -94,11 -3,-30 -7,-61 -11,-95zm-301 136c-32,3 -68,7 -103,10 -5,-34 -11,-69 -16,-104 35,-5 72,-10 110,-15 3,34 6,71 9,109zm1055 83c-32,4 -64,7 -99,10 -3,-31 -6,-66 -10,-104 29,-3 60,-7 92,-11 6,33 11,68 17,105zm940 -12c33,-3 68,-6 105,-9 4,32 8,62 11,92 -34,6 -69,11 -105,17 -3,-31 -7,-65 -11,-100zm-406 53c31,-3 62,-7 95,-11 4,33 8,64 12,94 -30,4 -61,8 -94,12 -4,-30 -8,-61 -13,-95zm-1059 -82c34,-5 70,-11 104,-17 5,36 10,73 16,111 -35,3 -72,6 -110,10 -3,-33 -7,-69 -10,-104zm-300 133c-35,5 -70,11 -106,17 -3,-33 -7,-67 -11,-100 35,-3 70,-6 105,-9 4,29 8,60 12,92zm940 -9c36,-5 73,-10 110,-16 3,35 6,73 10,110 -37,4 -70,7 -104,10 -5,-34 -11,-70 -16,-104zm-297 144c-33,5 -68,11 -103,17 -5,-35 -10,-71 -16,-110 34,-3 70,-6 110,-10 3,34 6,68 9,103zm946 -8c35,-6 70,-11 104,-17 5,36 10,73 16,111 -35,3 -72,6 -110,9 -3,-36 -7,-70 -10,-103zm-415 50c32,-3 66,-6 102,-9 5,32 11,66 17,103 -36,5 -73,11 -111,16 -2,-36 -5,-73 -8,-110zm-1051 -82c30,-4 61,-8 95,-12 3,33 6,68 10,105 -33,4 -63,8 -95,12 -3,-33 -6,-68 -10,-105zm-296 147c-36,3 -73,6 -110,9 -3,-33 -6,-67 -9,-103 32,-5 67,-11 103,-17 5,38 11,74 16,111zm1046 71c-31,4 -62,8 -95,11 -3,-30 -7,-60 -11,-94 30,-3 61,-7 94,-11 4,30 8,62 12,94zm940 -12c35,-3 71,-5 109,-8 3,31 7,66 10,102 -32,5 -67,11 -103,17 -5,-35 -10,-71 -16,-111zm-406 53c33,-3 66,-7 100,-11 3,34 6,69 10,105 -30,4 -60,8 -92,11 -6,-34 -12,-69 -18,-105zm-1056 -71c33,-5 68,-11 105,-17 4,32 8,66 12,100 -34,3 -68,6 -105,9 -4,-28 -8,-59 -12,-92zm-300 135c-32,3 -66,6 -103,9 -5,-33 -11,-69 -18,-105 37,-3 74,-6 111,-9 3,34 7,69 10,105zm946 -10c33,-5 68,-11 105,-17 3,35 6,72 9,110 -35,3 -69,7 -105,10 -3,-32 -6,-68 -9,-103zm-296 146c-36,2 -73,5 -111,8 -3,-33 -6,-68 -10,-104 34,-3 69,-7 104,-10 6,35 11,71 17,106zm940 -11c33,-5 68,-11 105,-17 3,31 7,64 10,100 -32,3 -66,6 -104,9 -4,-31 -8,-61 -11,-92zm-1466 76c-3,-33 -7,-70 -10,-109 31,-3 66,-6 103,-10 5,35 11,69 16,104 -34,5 -70,10 -109,15zm1049 -26c33,-3 68,-6 105,-9 4,28 8,60 12,94 -33,3 -67,6 -105,9 -4,-31 -8,-61 -12,-94zm-420 41c37,-3 74,-6 111,-9 2,33 5,67 9,103 -35,5 -68,11 -103,16 -5,-35 -11,-73 -17,-110zm-296 147c-29,3 -61,7 -92,11 -6,-35 -12,-70 -17,-105 32,-4 64,-7 100,-11 3,34 6,68 9,105zm946 -11c33,-3 68,-7 103,-10 6,34 11,69 17,104 -36,5 -73,10 -111,15 -3,-34 -6,-71 -9,-109zm-1456 74c-3,-32 -6,-67 -10,-104 36,-5 69,-10 105,-16 3,34 6,70 10,109 -32,4 -67,7 -105,11zm1051 -21c28,-4 59,-8 92,-12 5,33 11,68 17,105 -31,4 -64,7 -100,11 -3,-33 -6,-67 -9,-104zm-301 136c-33,3 -67,5 -104,9 -4,-28 -8,-59 -12,-92 33,-6 68,-11 105,-17 4,32 8,66 11,100zm940 -12c33,-4 65,-7 99,-11 3,32 7,67 10,105 -29,3 -60,7 -92,11 -5,-33 -11,-68 -17,-105zm-1461 78c-3,-32 -7,-66 -11,-100 35,-3 70,-6 105,-9 4,30 7,60 11,93 -35,5 -68,10 -105,16zm1045 -25c36,-5 73,-11 111,-16 3,35 6,72 9,109 -33,4 -68,7 -103,10 -6,-34 -11,-69 -17,-103zm-410 50c33,-3 69,-6 104,-10 3,33 6,67 10,103 -34,6 -70,12 -105,18 -3,-37 -6,-74 -9,-111zm-297 147c-32,4 -65,8 -99,11 -3,-33 -7,-69 -10,-105 30,-4 62,-7 93,-11 5,35 11,70 16,105zm941 -12c34,-3 68,-6 104,-9 4,29 8,61 12,92 -36,6 -71,12 -106,17 -3,-31 -7,-64 -10,-100zm-706 189c-35,4 -69,7 -104,10 -5,-33 -10,-69 -16,-104 35,-4 72,-10 110,-15 3,34 6,71 10,109zm300 -136c32,-4 63,-7 94,-11 4,31 8,62 12,95 -31,3 -61,7 -95,11 -3,-30 -7,-61 -11,-95zm-498 -4866c-33,5 -69,11 -105,17 -3,-35 -7,-72 -10,-110 35,-4 69,-7 105,-10 3,32 6,67 10,103zm296 -144c36,-5 73,-11 110,-16 3,35 6,72 9,110 -32,3 -68,6 -103,10 -5,-35 -11,-70 -16,-104zm-940 9c-35,5 -70,11 -105,16 -4,-31 -7,-65 -11,-99 33,-3 69,-7 105,-10 4,33 8,63 11,93zm1456 -73c3,34 5,67 9,105 -28,3 -59,7 -92,12 -6,-34 -11,-68 -17,-106 32,-3 66,-7 100,-11zm-1040 22c-33,4 -69,7 -105,11 -4,-31 -7,-62 -11,-93 35,-6 70,-11 105,-17 4,32 7,66 11,99zm410 -41c-32,3 -66,7 -100,11 -3,-34 -6,-69 -10,-105 30,-4 62,-8 93,-12 6,35 11,70 17,106zm295 -148c33,-3 68,-7 104,-10 5,34 11,70 16,105 -35,5 -72,10 -110,16 -3,-35 -6,-72 -10,-111zm-651 -137c38,-3 76,-6 113,-9 3,34 6,70 9,105 -34,6 -69,11 -103,17 -6,-37 -12,-76 -19,-113zm-294 149c-29,4 -60,7 -93,11 -5,-36 -11,-71 -17,-106 33,-4 67,-8 101,-12 3,35 6,71 9,107zm-166 5468c-31,4 -63,8 -95,12 -3,-34 -6,-69 -10,-105 31,-4 63,-8 95,-12 3,34 6,69 10,105zm295 -146c37,-3 74,-6 111,-9 3,33 6,69 10,104 -33,3 -67,6 -103,9 -6,-33 -12,-69 -18,-104zm1586 126c-31,4 -63,8 -94,12 -3,-35 -7,-71 -10,-106 31,-4 63,-8 95,-12 3,35 6,70 9,106zm-1511 -6043c67,27 130,23 188,-24 -22,50 -34,101 -4,153 -45,6 -88,11 -133,16 4,-52 -4,-106 -51,-145zm2428 6193c31,-40 40,-98 17,-169 23,0 47,3 71,-1 23,-3 45,-14 71,-22 -1,17 -3,33 -3,48 1,59 35,106 84,126l0 -256c-7,3 -14,7 -22,11 -1,-43 -3,-85 -5,-128 8,-2 18,-3 27,-5l0 -304 -67 0c-2,-31 -5,-68 -8,-104 24,-4 49,-8 75,-13l0 -1364c-11,1 -22,3 -33,4 -6,-35 -11,-70 -17,-105 17,-2 33,-4 50,-5l0 -314c-28,2 -57,5 -86,8 -4,-30 -7,-60 -11,-93 31,-5 64,-10 97,-15l0 -941c-1,0 -3,0 -4,0 -3,-35 -6,-70 -9,-105 4,-1 9,-1 13,-2l0 -316c-18,2 -36,4 -54,6 -5,-35 -11,-70 -17,-105 23,-2 47,-5 71,-8l0 -312c-34,3 -70,6 -107,9 -4,-30 -8,-62 -12,-93 37,-7 74,-14 110,-20 3,25 6,50 9,75l0 -566c-5,2 -10,4 -15,6 7,-16 12,-31 15,-46l0 -58c-6,-28 -21,-54 -48,-77 -56,-50 -119,-47 -183,-10 33,-159 -99,-253 -239,-175 27,-72 20,-136 -41,-184 -57,-46 -118,-40 -184,-1 23,-82 6,-146 -65,-188 -54,-31 -108,-26 -156,12 -65,50 -71,117 -39,191l-127 0c-11,-41 -22,-83 -33,-127 6,0 16,1 26,2 68,7 126,-26 151,-85 23,-56 7,-122 -38,-161 -49,-42 -116,-45 -174,-9 -11,7 -24,11 -36,16 38,-63 33,-126 -14,-173 -44,-45 -116,-57 -166,-20 -28,21 -55,56 -63,89 -8,35 7,75 10,103 -49,7 -103,15 -154,22 17,-63 2,-123 -58,-167 -48,-34 -114,-34 -162,-1 -69,48 -79,116 -53,191 -42,4 -80,8 -104,10 -23,-50 -43,-95 -64,-140 19,3 37,8 56,10 56,7 102,-13 133,-62 30,-48 31,-99 1,-147 -31,-51 -79,-71 -138,-64 -53,7 -90,37 -108,86 -22,57 -10,109 33,153 -67,-20 -132,-26 -186,24 3,-37 11,-72 5,-104 -14,-91 -140,-171 -254,-63 4,-13 8,-26 12,-39 20,-59 1,-121 -49,-155 -52,-37 -120,-32 -167,9 -46,41 -58,105 -31,161 6,13 12,25 18,37 -13,-4 -26,-8 -40,-11 -110,-25 -205,74 -175,183 3,13 9,25 11,32 -48,4 -93,7 -138,11 -2,-21 0,-45 -6,-69 -5,-21 -17,-41 -27,-64 92,19 151,-3 183,-64 29,-56 15,-125 -32,-166 -46,-40 -117,-48 -163,-9 -27,23 -52,59 -58,92 -6,35 10,74 18,115 -64,-32 -121,-5 -176,29 -33,58 -47,119 -19,176 -49,5 -95,10 -141,15 9,-66 -10,-122 -70,-159 -51,-30 -104,-29 -152,5 -73,50 -79,121 -51,188 -55,13 -107,26 -154,37 17,-83 -2,-140 -63,-175 -51,-29 -121,-20 -164,20 -51,49 -56,111 -13,198 -67,-24 -128,-18 -177,36 -48,53 -44,114 -17,181 -74,-20 -128,5 -176,50 5,-12 11,-25 15,-38 19,-55 2,-114 -42,-150 -44,-36 -106,-41 -155,-13 -50,28 -80,84 -65,141 8,32 33,61 51,92 67,34 130,29 187,-22 -6,52 -11,103 -17,156 -32,4 -77,10 -111,15 -19,-48 -40,-99 -61,-149 -13,-6 -27,-12 -40,-17 -92,-35 -193,28 -193,125 0,36 17,72 27,107 -66,-29 -134,-26 -186,38 -52,66 -38,133 14,202 -70,-29 -128,-26 -178,21 -60,56 -57,123 -22,196 -74,-18 -134,-4 -175,56 -42,58 -32,119 7,183 -74,-29 -135,-22 -183,33 -51,57 -46,121 -7,190 -81,-21 -144,-5 -186,64 -31,51 -25,114 13,160 52,61 117,66 189,34l0 134c-20,3 -43,3 -64,9 -23,7 -44,18 -66,28 9,-104 -13,-155 -79,-184 -56,-24 -121,-9 -161,37 -39,45 -49,118 -12,163 24,29 61,55 96,62 36,8 77,-9 107,-13 3,43 6,90 9,130 -45,10 -95,19 -142,29 13,-91 -11,-148 -77,-176 -56,-23 -121,-6 -158,42 -38,48 -42,118 -1,163 23,24 58,46 91,52 34,5 71,-12 95,-16 7,51 14,107 21,162 -67,-18 -132,-3 -173,69 -31,53 -26,108 11,155 49,63 115,71 183,42 5,44 11,86 16,131 -61,-15 -110,13 -156,51 -42,80 -34,153 30,219 52,24 104,36 162,11 3,42 6,82 9,119 -44,13 -89,26 -134,39 23,-61 4,-117 -39,-166 -8,-4 -16,-7 -24,-11 -66,-32 -135,-18 -178,35 -40,50 -41,123 -2,174 41,53 110,69 177,39 8,-4 16,-7 19,-7 6,52 12,101 17,151 -66,-18 -129,-4 -171,62 -32,51 -31,106 5,156 51,71 121,75 190,45 6,52 11,101 17,150 -66,-12 -126,5 -163,71 -30,54 -25,109 13,156 52,65 119,68 187,37 6,53 12,104 18,157 -69,-14 -132,3 -166,74 -26,53 -20,106 19,151 57,64 125,58 200,20 -23,72 -14,131 38,177 53,48 115,42 168,22 7,50 13,98 20,144 -89,-4 -137,18 -166,78 -25,51 -17,113 22,154 57,61 124,58 198,18 -22,79 -11,144 56,188 64,41 125,28 192,-24 -40,82 -24,147 24,206 -15,-5 -29,-12 -44,-16 -57,-20 -121,3 -154,53 -34,53 -28,121 14,167 43,46 111,56 166,24 79,-45 89,-130 24,-221 58,9 114,19 172,29 1,11 0,35 5,58 5,23 16,44 24,66 -95,-20 -155,2 -187,67 -27,55 -14,121 30,163 17,15 39,27 61,33l68 0c14,-4 27,-11 38,-20 27,-23 52,-58 60,-92 7,-35 -8,-75 -13,-105l138 0c6,42 13,87 21,133 -73,-11 -135,8 -169,83 0,0 0,0 0,1l259 0 0 -23c34,-2 74,-4 115,-5 2,9 4,18 6,28l308 0c-3,-23 -5,-46 -8,-68 34,-3 70,-6 109,-9 3,25 6,51 10,77l994 0c19,-2 38,-4 57,-5 0,1 0,3 0,5l315 0c-2,-12 -3,-23 -5,-35 30,-4 61,-8 95,-13 2,16 3,32 5,48l316 0c-3,-28 -7,-58 -10,-89 35,-3 69,-6 105,-9 3,29 7,60 11,92 -12,2 -24,4 -36,6l978 0c0,-6 -1,-11 -2,-16 34,-3 70,-6 110,-10 1,9 2,17 2,26l315 0c-2,-19 -5,-37 -7,-56 36,-5 71,-11 106,-17 2,24 5,48 7,73l680 0z"/>
   </g>
  </g>
 </g>
</svg>
