<svg xmlns="http://www.w3.org/2000/svg" version="1.1" xmlns:xlink="http://www.w3.org/1999/xlink" width="1000" height="1000"><g clip-path="url(#SvgjsClipPath1033)"><rect width="1000" height="1000" fill="360D36"></rect><g transform="matrix(13.72549019607843,0,0,13.72549019607843,252.94117647058826,150)"><svg xmlns="http://www.w3.org/2000/svg" version="1.1" xmlns:xlink="http://www.w3.org/1999/xlink" width="36" height="51"><svg width="36" height="51" viewBox="0 0 36 51" fill="none" xmlns="http://www.w3.org/2000/svg">
<path d="M13.5 0C10.9 4.5 12.4 10.2 16.9 12.9C19.5 8.4 18 2.6 13.5 0Z" fill="#8BC541"></path>
<path d="M18.3 12.6C21.8 12.7 24.7 10 24.9 6.5C21.3 6.3 18.4 9.1 18.3 12.6Z" fill="#8BC541"></path>
<path d="M2.39999 36.4C2.09999 36.7 1.79999 36.9 1.39999 36.8C0.799995 36.7 0.499995 36.1 0.699995 35.6C0.899995 35.1 1.39999 34.8 1.99999 35C2.09999 35 2.19999 35.1 2.29999 35.1C2.49999 35.5 2.59999 36 2.39999 36.4Z" fill="#F69220"></path>
<path d="M32.8 36C32.9 35.9 32.8 35.9 32.8 36C33.1 35.7 33.5 35.5 33.9 35.6C34.4 35.8 34.7 36.3 34.5 36.8C34.4 37.3 33.8 37.5 33.4 37.4C32.9 37.3 32.6 36.8 32.8 36.3C32.8 36.2 32.8 36.1 32.8 36Z" fill="#F69220"></path>
<path d="M31.6 25.3C31.3 25 31 24.7 31.2 24.2C31.3 23.7 31.8 23.4 32.4 23.6C32.9 23.7 33.2 24.3 33 24.8C32.9 25.3 32.4 25.5 31.9 25.4C31.8 25.4 31.7 25.3 31.6 25.3Z" fill="#F69220"></path>
<path d="M18.4 50C17.9 50 17.5 49.6 17.5 49.1C17.5 48.6 17.9 48.2 18.4 48.2C18.9 48.2 19.3 48.6 19.3 49.1C19.3 49.6 18.9 50 18.4 50Z" fill="#F69220"></path>
<path d="M20.6 48.1C20.8 48 20.9 47.8 21.1 47.8C21.5 47.7 21.9 47.9 22.1 48.2C22.3 48.5 22.2 49 21.9 49.3C21.6 49.6 21.2 49.6 20.8 49.5C20.4 49.3 20.3 48.9 20.4 48.5C20.5 48.3 20.6 48.2 20.6 48.1Z" fill="#F69220"></path>
<path d="M15.2 16C15.2 16.5 14.8 16.9 14.3 16.9C13.8 16.9 13.4 16.5 13.4 16C13.4 15.5 13.8 15.1 14.3 15.1C14.9 15.1 15.2 15.5 15.2 16Z" fill="#F69220"></path>
<path d="M18.3 15.6C18.3 16.1 17.9 16.5 17.4 16.5C16.9 16.5 16.5 16.1 16.5 15.6C16.5 15.1 16.9 14.7 17.4 14.7C17.9 14.7 18.3 15.1 18.3 15.6Z" fill="#F69220"></path>
<path d="M34.2 29.7C33.7 29.7 33.3 29.3 33.3 28.8C33.3 28.3 33.7 27.9 34.2 27.9C34.7 27.9 35.1 28.3 35.1 28.9C35 29.4 34.6 29.7 34.2 29.7Z" fill="#F69220"></path>
<path d="M35.3 31.8C35.3 32.3 35 32.7 34.5 32.7C34 32.7 33.6 32.4 33.6 31.9C33.6 31.4 33.9 31 34.5 30.9C35 30.9 35.3 31.2 35.3 31.8Z" fill="#F69220"></path>
<path d="M8.19999 45.8C8.19999 46.3 7.79999 46.7 7.29999 46.7C6.89999 46.7 6.39999 46.2 6.39999 45.8C6.39999 45.3 6.79999 44.9 7.29999 44.9C7.79999 44.9 8.19999 45.3 8.19999 45.8Z" fill="#F69220"></path>
<path d="M5.20001 21.8C5.20001 22.2 5.00001 22.5 4.60001 22.6C4.20001 22.7 3.90001 22.6 3.70001 22.4C3.40001 22.1 3.40001 21.9 3.70001 21.6C3.80001 21.5 3.90001 21.4 3.90001 21.3C4.10001 21 4.30001 20.9 4.70001 21C5.00001 21.2 5.20001 21.5 5.20001 21.8Z" fill="#F69220"></path>
<path d="M1.9 38C2.4 38 2.8 38.4 2.8 38.9C2.8 39.4 2.4 39.8 1.9 39.8H1.8C1.5 39.8 0.999997 39 1.1 38.6C1.1 38.3 1.5 38 1.9 38Z" fill="#F69220"></path>
<path d="M6.5 44.5C6.5 44.9 6.2 45.3 5.8 45.3C5.7 45.3 5.5 45.3 5.4 45.2C5.2 45 5 44.8 4.8 44.6C4.7 44.5 4.7 44.4 4.7 44.3C4.7 43.9 5.2 43.5 5.6 43.6C6.1 43.7 6.5 44.1 6.5 44.5Z" fill="#F69220"></path>
<path d="M0.100006 30.1C0.100006 29.3 0.400006 28.9 0.800006 29C1.30001 29 1.60001 29.5 1.60001 29.9C1.60001 30.4 1.20001 30.8 0.700006 30.7C0.400006 30.7 0.100006 30.4 0.100006 30.1Z" fill="#F69220"></path>
<path d="M9.80001 47.3C9.70001 47.4 9.60001 47.6 9.40001 47.8C9.30001 47.9 9.10001 47.9 9.00001 47.8C8.70001 47.5 8.10001 47.5 8.10001 47C8.10001 46.6 8.50001 46.2 9.00001 46.2C9.50001 46.3 9.90001 46.7 9.80001 47.3Z" fill="#F69220"></path>
<path d="M3.9 23.5C3.9 24.2 3.2 24.6 2.6 24.2C2.2 24 2.2 23.7 2.4 23.4C2.5 23.3 2.5 23.2 2.6 23C2.8 22.8 2.9 22.4 3.3 22.6C3.7 22.8 4 23.1 3.9 23.5Z" fill="#F69220"></path>
<path d="M15.4 48.6C15.9 48.6 16.3 49 16.3 49.5C16.3 49.9 16.1 50.1 15.6 50C15.4 50 15.2 50 15 49.9C14.5 49.8 14.4 49.6 14.5 49.2C14.7 48.8 15 48.6 15.4 48.6Z" fill="#F69220"></path>
<path d="M5.6 20.9C5.5 20.8 5.3 20.7 5.1 20.5C4.9 20.3 4.9 20.1 5.1 19.9C5.2 19.8 5.4 19.6 5.5 19.5C5.7 19.3 5.8 19.1 6.1 19.2C6.4 19.4 6.6 19.6 6.6 20C6.6 20.5 6.2 21 5.6 20.9Z" fill="#F69220"></path>
<path d="M23.6 48.3C23.6 48 23.8 47.7 24.1 47.6C24.4 47.4 24.7 47.5 25 47.7C25.4 48 25.4 48.4 24.9 48.7C24.7 48.8 24.6 48.8 24.4 48.9C23.8 49 23.6 48.8 23.6 48.3Z" fill="#F69220"></path>
<path d="M30.5 43C30.5 42.4 31 42 31.6 42.1C32.1 42.2 32.2 42.5 31.9 42.9C31.8 43.1 31.7 43.2 31.6 43.4C31.5 43.5 31.3 43.7 31.2 43.7C31 43.6 30.8 43.4 30.7 43.2C30.5 43.2 30.5 43 30.5 43Z" fill="#F69220"></path>
<path d="M12.2 16.4C12.2 16.8 11.9 17.1 11.5 17.2C11.1 17.3 10.7 17.1 10.6 16.7C10.5 16.4 10.5 16.2 10.8 16.1C11 16 11.2 15.9 11.4 15.9C11.9 15.7 12.2 15.9 12.2 16.4Z" fill="#F69220"></path>
<path d="M28.5 19.7C27.8 19.7 27.4 19.1 27.7 18.5C27.9 18.1 28.1 18.1 28.4 18.3C28.6 18.4 28.8 18.6 29 18.8C29.4 19.1 29.3 19.4 28.9 19.6C28.7 19.7 28.5 19.7 28.5 19.7Z" fill="#F69220"></path>
<path d="M29.2 44.6C29.2 44.2 29.4 43.9 29.7 43.8C30 43.7 30.3 43.7 30.6 44C30.8 44.2 30.8 44.3 30.6 44.5C30.4 44.7 30.2 44.9 30 45.1C29.9 45.2 29.7 45.4 29.6 45.3C29.4 45.2 29.3 45 29.2 44.8V44.6Z" fill="#F69220"></path>
<path d="M31.7 41.1C31.9 40.9 32 40.6 32.2 40.5C32.4 40.4 32.8 40.4 33 40.5C33.2 40.5 33.3 40.7 33.1 40.9C32.9 41.2 32.8 41.4 32.6 41.7C32.4 42 32.2 42.1 31.9 41.8C31.9 41.6 31.9 41.4 31.7 41.1Z" fill="#F69220"></path>
<path d="M20.3 16.1C19.9 16.1 19.6 15.9 19.5 15.6C19.4 15.1 19.5 14.9 20 15C20.2 15 20.5 15.1 20.7 15.1C21.1 15.2 21.2 15.4 21 15.7C20.9 15.9 20.7 16.1 20.3 16.1Z" fill="#F69220"></path>
<path d="M34.1 34.8C34.1 34.5 34.2 34.2 34.5 34.1C34.7 34 34.9 34 35.1 34.1C35.2 34.1 35.2 34.4 35.2 34.6C35.2 34.9 35.1 35.1 35.1 35.4C35.1 35.7 34.9 35.7 34.6 35.7C34.3 35.5 34.1 35.2 34.1 34.8Z" fill="#F69220"></path>
<path d="M4.79999 43.3C4.79999 43.3 4.79999 43.5 4.69999 43.6C4.49999 43.9 4.29999 44 4.09999 43.7C3.89999 43.5 3.69999 43.2 3.49999 43C3.29999 42.8 3.39999 42.6 3.59999 42.6C3.89999 42.5 4.19999 42.5 4.39999 42.6C4.69999 42.6 4.79999 42.9 4.79999 43.3Z" fill="#F69220"></path>
<path d="M11.5 48.5C11.5 48.9 11.4 49 11 48.8C10.7 48.7 10.5 48.5 10.2 48.4C9.9 48.3 9.9 48.1 10.1 47.9C10.3 47.6 10.7 47.5 11 47.6C11.3 47.8 11.5 48.1 11.5 48.5Z" fill="#F69220"></path>
<path d="M26.8 18.3C26.1 18.3 25.7 17.7 26 17.2C26.1 17 26.2 16.9 26.4 17.1C26.7 17.3 26.9 17.4 27.2 17.6C27.6 17.9 27.6 18.1 27.1 18.3H26.8Z" fill="#F69220"></path>
<path d="M30.1 21C29.8 21 29.5 20.8 29.4 20.5C29.3 20.2 29.4 19.9 29.5 19.7C29.6 19.5 29.8 19.5 29.9 19.7C30.1 19.9 30.3 20.1 30.5 20.3C30.6 20.4 30.7 20.6 30.7 20.7C30.6 20.8 30.4 20.9 30.3 21H30.1Z" fill="#F69220"></path>
<path d="M33.9 26.6C33.5 26.6 33.2 26.4 33.1 26.1C33 25.8 33.1 25.4 33.4 25.2C33.6 25.1 33.7 25 33.8 25.3C33.9 25.6 34.1 25.9 34.2 26.2C34.3 26.5 34.2 26.6 33.9 26.6Z" fill="#F69220"></path>
<path d="M2.49999 25C2.49999 25.5 2.29999 25.8 1.99999 25.9C1.79999 26 1.59999 25.9 1.39999 25.9C1.39999 25.7 1.39999 25.6 1.49999 25.4C1.59999 25.2 1.69999 25 1.79999 24.8C1.99999 24.5 2.09999 24.4 2.39999 24.7C2.39999 24.8 2.49999 25 2.49999 25Z" fill="#F69220"></path>
<path d="M7.6 17.9C7.9 18.3 7.9 18.7 7.6 19C7.3 19.3 6.9 19.3 6.6 19.1C6.4 19 6.4 18.9 6.6 18.7C6.9 18.4 7.2 18.2 7.6 17.9Z" fill="#F69220"></path>
<path d="M28.1 46.7C27.8 46.3 27.8 46 28.1 45.7C28.3 45.5 28.6 45.4 29 45.5C29.2 45.6 29.3 45.7 29.1 45.9C28.8 46.2 28.5 46.4 28.1 46.7Z" fill="#F69220"></path>
<path d="M25.6 16.6C25.3 16.9 25.1 17 24.8 16.9C24.5 16.8 24.3 16.5 24.3 16.2C24.3 16.2 24.4 16 24.5 16.1C24.8 16.3 25.2 16.4 25.6 16.6Z" fill="#F69220"></path>
<path d="M31.2 21C31.5 21.4 31.8 21.7 32.1 22.1C31.7 22.4 31.5 22.2 31.2 22C30.9 21.8 30.9 21.5 31.2 21Z" fill="#F69220"></path>
<path d="M33.6 40.1C33.3 39.8 33.2 39.6 33.3 39.3C33.4 38.9 33.7 38.8 34.2 38.7C34 39.2 33.8 39.7 33.6 40.1Z" fill="#F69220"></path>
<path d="M0 33.9C0.6 34.2 0.7 34.7 0.2 35.2C0.1 34.7 0.1 34.3 0 33.9Z" fill="#F69220"></path>
<path d="M20.5 49.9C20.2 49.9 19.9 50 19.6 50C19.6 49.9333 19.5667 49.8667 19.5 49.8C19.7 49.7 19.8 49.6 20 49.6C20.2 49.6 20.3 49.7 20.5 49.7V49.9Z" fill="#F69220"></path>
<path d="M2.3 41.3C2.8 41.4 3 41.6 2.9 42.2C2.7 41.8 2.5 41.5 2.3 41.3Z" fill="#F69220"></path>
<path d="M0.699997 27.5C0.799997 27.2 0.899997 26.9 0.999997 26.5C1.2 27 1.2 27.3 0.699997 27.5Z" fill="#F69220"></path>
<path d="M12.8 49.5C12.6 49.4 12.4 49.4 12.2 49.3V49.1C12.4 49.2 12.6 49.2 12.9 49.3C12.9 49.3 12.9 49.4 12.8 49.5Z" fill="#F69220"></path>
<path d="M0.799997 37.7C0.799997 37.5 0.699997 37.3 0.699997 37.2H0.799997C0.899997 37.4 0.899997 37.6 0.999997 37.7H0.799997Z" fill="#F69220"></path>
<path d="M28.4 25.7C28.8 26.1 28.9 26.5 28.7 27.1C28.4 27.3 28.2 27.6 27.8 27.5C27.2 27.4 26.8 26.9 26.9 26.4C27 25.8 27.5 25.5 28.1 25.6C28.2 25.7 28.3 25.7 28.4 25.7Z" fill="#F69220"></path>
<path d="M6.79999 28.3C7.29999 28.3 7.69999 28.7 7.69999 29.2C7.69999 29.7 7.29999 30.1 6.79999 30.1C6.29999 30.1 5.89999 29.7 5.89999 29.2C5.89999 28.7 6.29999 28.3 6.79999 28.3Z" fill="#F69220"></path>
<path d="M14.6 42.5C15.1 42.5 15.5 42.9 15.5 43.4C15.5 43.9 15.1 44.3 14.6 44.3C14.1 44.3 13.7 43.9 13.7 43.4C13.8 42.9 14.2 42.5 14.6 42.5Z" fill="#F69220"></path>
<path d="M8.8 38.2C8.8 38.7 8.4 39.1 7.9 39.1C7.4 39.1 7 38.7 7 38.2C7 37.7 7.4 37.3 7.9 37.3C8.4 37.3 8.8 37.7 8.8 38.2Z" fill="#F69220"></path>
<path d="M27 25.2C27 25.7 26.6 26.1 26.1 26C25.6 26 25.2 25.6 25.3 25.1C25.3 24.6 25.7 24.2 26.2 24.3C26.7 24.4 27 24.7 27 25.2Z" fill="#F69220"></path>
<path d="M22.8 23.4C22.3 23.4 21.9 23 21.9 22.6C21.9 22.1 22.3 21.7 22.8 21.7C23.3 21.7 23.6 22.1 23.6 22.5C23.6 23 23.2 23.4 22.8 23.4Z" fill="#F69220"></path>
<path d="M25.8 40.7C25.8 41.2 25.4 41.5 24.9 41.5C24.4 41.5 24.1 41.1 24.1 40.6C24.1 40.1 24.5 39.8 25 39.8C25.4 39.8 25.8 40.2 25.8 40.7Z" fill="#F69220"></path>
<path d="M28.4 37.3C28.4 37.8 28 38.1 27.6 38.1C27.1 38.1 26.7 37.7 26.7 37.2C26.7 36.7 27.1 36.4 27.5 36.4C28.1 36.4 28.4 36.8 28.4 37.3Z" fill="#F69220"></path>
<path d="M29 29.5C29 30 28.6 30.3 28.2 30.3C27.7 30.3 27.4 29.9 27.4 29.5C27.4 29.1 27.8 28.7 28.2 28.7C28.6 28.7 29 29.1 29 29.5Z" fill="#F69220"></path>
<path d="M11.5 24.1C11.5 24.5 11.1 24.9 10.7 24.9C10.2 24.9 9.89999 24.5 9.89999 24.1C9.89999 23.7 10.3 23.3 10.7 23.3C11.2 23.3 11.5 23.6 11.5 24.1Z" fill="#F69220"></path>
<path d="M24.5 24.8C24 24.8 23.7 24.4 23.7 24C23.7 23.6 24.1 23.2 24.5 23.2C25 23.2 25.3 23.6 25.3 24C25.3 24.4 24.9 24.8 24.5 24.8Z" fill="#F69220"></path>
<path d="M29.4 32.6C29.4 33.1 29 33.4 28.6 33.4C28.2 33.4 27.8 33 27.8 32.6C27.8 32.1 28.2 31.8 28.6 31.8C29 31.7 29.4 32.1 29.4 32.6Z" fill="#F69220"></path>
<path d="M27.1 38.9C27.1 39.3 26.7 39.7 26.3 39.7C25.9 39.7 25.5 39.3 25.5 38.9C25.5 38.5 25.9 38.1 26.3 38.1C26.7 38.1 27.1 38.5 27.1 38.9Z" fill="#F69220"></path>
<path d="M8.9 27.4C8.9 27.8 8.5 28.2 8.1 28.2C7.7 28.2 7.3 27.8 7.3 27.4C7.3 27 7.7 26.6 8.1 26.6C8.6 26.6 8.9 27 8.9 27.4Z" fill="#F69220"></path>
<path d="M18.1 22.5C17.7 22.5 17.3 22.1 17.3 21.7C17.3 21.3 17.7 20.9 18.1 20.9C18.5 20.9 18.9 21.3 18.9 21.7C18.9 22.1 18.5 22.5 18.1 22.5Z" fill="#F69220"></path>
<path d="M9.6 40.3C10.0418 40.3 10.4 39.9418 10.4 39.5C10.4 39.0582 10.0418 38.7 9.6 38.7C9.15818 38.7 8.8 39.0582 8.8 39.5C8.8 39.9418 9.15818 40.3 9.6 40.3Z" fill="#F69220"></path>
<path d="M13.8 42.1C13.8 42.5 13.4 42.9 13 42.9C12.6 42.9 12.2 42.5 12.2 42.1C12.2 41.7 12.6 41.3 13 41.3C13.4 41.3 13.8 41.7 13.8 42.1Z" fill="#F69220"></path>
<path d="M11.3 40.1C11.7 40.1 12 40.5 12 40.9C12 41.3 11.6 41.6 11.2 41.6C10.8 41.6 10.5 41.2 10.5 40.8C10.5 40.4 10.8 40 11.3 40.1Z" fill="#F69220"></path>
<path d="M21.4 42.7C21.4 43.1 21.1 43.5 20.6 43.5C20.2 43.5 19.8 43.2 19.8 42.7C19.8 42.3 20.1 41.9 20.6 41.9C21.1 41.9 21.4 42.3 21.4 42.7Z" fill="#F69220"></path>
<path d="M18.5 43.1C18.5 43.5 18.1 43.9 17.7 43.9C17.3 43.9 16.9 43.5 17 43.1C17 42.7 17.4 42.3 17.8 42.3C18.1 42.3 18.5 42.7 18.5 43.1Z" fill="#F69220"></path>
<path d="M15.9 22C15.9 22.4 15.6 22.8 15.1 22.8C14.7 22.8 14.3 22.5 14.3 22C14.3 21.6 14.6 21.2 15.1 21.2C15.5 21.2 15.9 21.6 15.9 22Z" fill="#F69220"></path>
<path d="M9.40001 26.5C9.00001 26.5 8.60001 26.2 8.60001 25.8C8.60001 25.3 8.90001 25 9.40001 25C9.80001 25 10.2 25.3 10.2 25.8C10.2 26.2 9.90001 26.5 9.40001 26.5Z" fill="#F69220"></path>
<path d="M7.19999 32.9C6.79999 32.9 6.39999 32.6 6.39999 32.1C6.39999 31.7 6.69999 31.4 7.19999 31.4C7.59999 31.4 7.99999 31.7 7.99999 32.2C7.89999 32.5 7.59999 32.9 7.19999 32.9Z" fill="#F69220"></path>
<path d="M7.5 35.9C7.1 35.9 6.7 35.5 6.7 35.1C6.7 34.7 7.1 34.4 7.5 34.4C7.9 34.4 8.3 34.8 8.3 35.2C8.3 35.6 7.9 35.9 7.5 35.9Z" fill="#F69220"></path>
<path d="M27.2 34.8C26.9 34.8 26.6 34.5 26.6 34.2C26.6 33.9 26.9 33.6 27.2 33.6C27.5 33.6 27.8 33.9 27.8 34.2C27.8 34.6 27.6 34.8 27.2 34.8Z" fill="#F69220"></path>
<path d="M19.8 23.6C19.5 23.6 19.2 23.3 19.2 23C19.2 22.7 19.5 22.4 19.8 22.4C20.1 22.4 20.4 22.7 20.4 23C20.4 23.3 20.1 23.6 19.8 23.6Z" fill="#F69220"></path>
<path d="M27.2 28.2C27.2 28.6 26.9 28.8 26.6 28.8C26.2 28.8 26 28.5 26 28.2C26 27.9 26.3 27.6 26.6 27.6C26.9 27.6 27.1 27.9 27.2 28.2Z" fill="#F69220"></path>
<path d="M22 40.4C22.3 40.4 22.6 40.7 22.6 41C22.6 41.3 22.3 41.6 22 41.6C21.7 41.6 21.4 41.3 21.4 41C21.4 40.7 21.7 40.4 22 40.4Z" fill="#F69220"></path>
<path d="M13.7 24.3C13.4 24.3 13.1 24 13.2 23.7C13.2 23.4 13.5 23.1 13.8 23.2C14.1 23.2 14.3 23.5 14.3 23.8C14.3 24 14 24.3 13.7 24.3Z" fill="#F69220"></path>
<path d="M15.9 42.3C15.6 42.3 15.4 42.1 15.4 41.8C15.4 41.5 15.6 41.2 15.9 41.2C16.2 41.2 16.5 41.4 16.4 41.7C16.5 42 16.2 42.3 15.9 42.3Z" fill="#F69220"></path>
<path d="M9.7 36.4C9.7 36.7 9.5 36.9 9.2 36.9C8.9 36.9 8.7 36.7 8.7 36.4C8.7 36.1 8.9 35.9 9.2 35.9C9.5 35.9 9.7 36.1 9.7 36.4Z" fill="#F69220"></path>
<path d="M26.9 31.8C26.6 31.8 26.4 31.5 26.4 31.3C26.4 31 26.7 30.8 26.9 30.8C27.2 30.8 27.4 31.1 27.4 31.3C27.4 31.6 27.2 31.8 26.9 31.8Z" fill="#F69220"></path>
<path d="M9 30.4C9 30.7 8.8 30.9 8.5 30.9C8.2 30.9 8 30.6 8 30.4C8 30.1 8.2 29.9 8.5 29.9C8.8 29.9 9 30.2 9 30.4Z" fill="#F69220"></path>
<path d="M16.8 23.8C16.5 23.8 16.3 23.6 16.3 23.3C16.3 23 16.5 22.8 16.8 22.8C17.1 22.8 17.2 23 17.3 23.2C17.2 23.6 17.1 23.8 16.8 23.8Z" fill="#F69220"></path>
<path d="M26.1 36.4C25.7 36.3 25.5 36.2 25.5 35.9C25.5 35.6 25.7 35.5 25.9 35.5C26.2 35.5 26.4 35.7 26.3 36C26.3 36.2 26.1 36.3 26.1 36.4Z" fill="#F69220"></path>
<path d="M19.4 41.3C19.4 41.6 19.2 41.8 18.9 41.8C18.6 41.8 18.4 41.6 18.5 41.3C18.5 41 18.7 40.9 18.9 40.9C19.2 40.9 19.4 41.1 19.4 41.3Z" fill="#F69220"></path>
<path d="M21.5 23.8C21.6 24 21.8 24.1 21.8 24.3C21.9 24.5 21.6 24.8 21.4 24.7C21.1 24.7 20.9 24.5 21 24.3C21 24.1 21.2 24 21.3 23.8H21.5Z" fill="#F69220"></path>
<path d="M25.3 26.9C25.3 27.2 25.1 27.4 24.8 27.4C24.5 27.4 24.4 27.2 24.4 26.9C24.4 26.6 24.6 26.5 24.8 26.5C25.1 26.4 25.2 26.6 25.3 26.9Z" fill="#F69220"></path>
<path d="M23.8 39.4C23.6 39.5 23.5 39.7 23.3 39.7C23.2 39.7 22.9 39.5 22.9 39.3C22.9 39 23.1 38.9 23.3 38.9C23.5 38.9 23.6 39.1 23.8 39.2V39.4Z" fill="#F69220"></path>
<path d="M8.89999 33C8.99999 33.2 9.19999 33.3 9.19999 33.5C9.19999 33.8 8.99999 34 8.79999 33.9C8.59999 33.9 8.39999 33.6 8.39999 33.5C8.39999 33.3 8.59999 33.2 8.69999 33H8.89999Z" fill="#F69220"></path>
<path d="M12.9 25.5C12.8 25.6 12.6 25.8 12.5 25.8C12.3 25.8 12.1 25.7 12.1 25.4C12.1 25.1 12.3 25 12.5 25C12.7 25 12.8 25.2 12.9 25.3V25.5Z" fill="#F69220"></path>
<path d="M23.6 25.7C23.5 25.8 23.3 26 23.2 26C23 26 22.8 25.9 22.8 25.6C22.8 25.5 23 25.3 23.2 25.3C23.3 25.3 23.5 25.5 23.6 25.6V25.7Z" fill="#F69220"></path>
<path d="M10.2 28.9C10.1 29 9.9 29.2 9.8 29.2C9.7 29.2 9.5 29 9.5 28.8C9.5 28.7 9.7 28.5 9.8 28.5C9.9 28.5 10.1 28.7 10.2 28.8C10.2 28.7 10.2 28.8 10.2 28.9Z" fill="#F69220"></path>
<path d="M14.7 40.5C14.6 40.6 14.4 40.8 14.3 40.8C14.2 40.8 14 40.6 13.9 40.4C14 40.3 14.1 40.1 14.3 40.1C14.4 40.1 14.6 40.3 14.7 40.4V40.5Z" fill="#F69220"></path>
<path d="M25.1 37.7C25 37.8 24.8 38 24.7 38C24.6 38 24.3 37.8 24.4 37.6C24.4 37.5 24.6 37.3 24.8 37.3C24.9 37.3 25.1 37.5 25.2 37.6C25.1 37.6 25.1 37.7 25.1 37.7Z" fill="#F69220"></path>
<path d="M11.5 37.8C11.2 38 11.1 38.1 11 38.1C10.9 38.1 10.8 37.9 10.6 37.8C10.7 37.7 10.8 37.5 11 37.5C11.1 37.4 11.2 37.6 11.5 37.8Z" fill="#F69220"></path>
<path d="M11.6 27C11.4 27.2 11.2 27.3 11.1 27.3C11 27.3 10.8 27.1 10.8 27C10.8 26.9 11 26.7 11.1 26.7C11.2 26.7 11.3 26.9 11.6 27Z" fill="#F69220"></path>
<path d="M12.6 38.6C12.7 38.8 12.9 38.9 12.9 39C12.9 39.1 12.7 39.3 12.6 39.3C12.5 39.3 12.3 39.1 12.3 39C12.3 39 12.5 38.8 12.6 38.6Z" fill="#F69220"></path>
<path d="M2.20001 35.1C1.60001 34.4 1.60001 34.3 1.80001 33.6C1.70001 33.7 1.60001 33.7 1.50001 33.7C1.10001 33.8 0.700006 33.7 0.500006 33.4C0.300006 33.1 0.300006 32.6 0.500006 32.3C0.700006 32 1.10001 31.8 1.50001 31.9C1.60001 31.9 1.70001 32 1.70001 32C2.10001 32.3 2.20001 32.8 2.10001 33.2C2.40001 33.1 2.80001 33 3.10001 32.9C3.10001 32.7 3.00001 32.4 3.00001 32.2C2.50001 32.1 2.10001 32 1.70001 32V31.8C1.40001 31.4 1.40001 31 1.60001 30.6C1.80001 30.2 2.20001 30 2.70001 30.1H2.80001C2.80001 29.7 2.70001 29.3 2.70001 29C2.50001 29 2.20001 29.1 2.00001 29.1C1.80001 29.1 1.50001 28.9 1.40001 28.7C1.10001 28.4 1.20001 27.9 1.50001 27.5C1.80001 27.2 2.20001 27.1 2.60001 27.2C3.10001 27.4 3.30001 27.8 3.20001 28.4C3.50001 28.3 3.80001 28.2 4.20001 28.1C4.20001 27.9 4.20001 27.6 4.10001 27.4C3.50001 27.6 3.00001 27.5 2.70001 27C2.50001 26.6 2.50001 26.2 2.70001 25.9C3.00001 25.4 3.50001 25.3 4.00001 25.5C3.70001 25 3.70001 24.6 4.00001 24.1C4.30001 23.7 4.70001 23.6 5.30001 23.7C5.10001 23.2 5.10001 22.8 5.40001 22.4C5.70001 22 6.10001 21.9 6.60001 22C6.50001 21.5 6.40001 21.1 6.70001 20.7C7.00001 20.3 7.40001 20.3 7.90001 20.3C7.70001 19.8 7.60001 19.3 8.00001 19C8.20001 18.8 8.50001 18.7 8.80001 18.7C9.50001 18.7 9.90001 19.2 9.80001 20C10.1 19.9 10.4 19.9 10.7 19.8V18.8C10 19 9.60001 18.9 9.30001 18.4C9.10001 18 9.10001 17.6 9.40001 17.3C9.70001 17 10.1 16.9 10.5 17.1C10.9 17.3 11.1 17.7 11 18.4C11.2 18.3 11.3 18.3 11.5 18.2H12.1C11.9 17.6 11.9 17.1 12.4 16.7C12.8 16.5 13.1 16.5 13.5 16.7C14 17 14.1 17.5 13.9 17.9C14.2 17.8 14.6 17.8 14.9 17.7C14.7 16.9 15.1 16.3 15.7 16.2C16.5 16.1 16.9 16.6 17 17.5C17.3 17.5 17.6 17.4 18 17.4C17.9 17 17.8 16.5 18.2 16.2C18.4 16 18.7 15.9 18.9 15.9C19.5 15.8 20 16.3 20 17.2C20.2 17.2 20.4 17.1 20.6 17.1C20.8 17.1 21 17.2 21.2 17.2C21 16.5 21 16.1 21.5 15.8C21.8 15.6 22.3 15.6 22.6 15.8C22.9 16.1 23 16.5 22.9 16.9C22.7 17.4 22.4 17.5 21.6 17.5C21.7 17.8 21.8 18.2 21.8 18.5H22.8C22.5 18 22.5 17.5 23 17.1C23.3 16.8 23.8 16.8 24.2 17.1C24.7 17.4 24.7 17.9 24.6 18.5C25.1 18.2 25.5 18.1 25.9 18.4C26.3 18.7 26.4 19.1 26.4 19.7C26.9 19.5 27.4 19.5 27.8 19.9C28.2 20.3 28.2 20.8 27.9 21.3C28.4 20.9 28.8 20.8 29.3 21.1C29.8 21.4 29.9 21.9 29.7 22.4C30.3 22.1 30.8 22.1 31.2 22.6C31.5 22.9 31.5 23.3 31.3 23.7C31.1 24.2 30.7 24.3 30.2 24.3C30.2 24.6 30.3 24.9 30.3 25.3C30.7 25.1 31.1 25.3 31.6 25.5C31.8 25.9 32 26.3 31.9 26.8C32.4 26.6 32.8 26.6 33.1 26.9C33.3 27.1 33.4 27.4 33.5 27.6C33.6 28.2 33.1 28.6 32.3 28.7C32.3 29 32.4 29.3 32.4 29.7C32.8 29.6 33.2 29.5 33.5 29.9C33.7 30.1 33.8 30.3 33.9 30.6C34 31.3 33.6 31.7 32.7 31.8C32.7 32.1 32.7 32.5 32.8 32.8C33.3 32.6 33.8 32.7 34.1 33.1C34.4 33.4 34.4 33.8 34.2 34.2C33.9 34.7 33.5 34.8 32.9 34.7C33.2 35.2 33.1 35.6 32.9 36.1H32.8C32.5 36.3 32.1 36.4 31.7 36.6V37.4C32.2 37.2 32.7 37.2 33.1 37.7C33.3 38.1 33.4 38.4 33.1 38.8C32.8 39.3 32.4 39.4 31.8 39.2C32 39.7 32.1 40.1 31.8 40.5C31.5 40.9 31 41 30.5 40.9C30.7 41.4 30.8 41.8 30.5 42.2C30.2 42.6 29.8 42.7 29.3 42.6C29.5 43.1 29.5 43.5 29.2 43.9C28.8 44.3 28.4 44.3 27.9 44.2C28.2 44.7 28.3 45.3 27.8 45.7C27.5 46 27 46.1 26.6 45.9C26.2 45.7 26 45.3 26.1 44.6C25.8 44.7 25.5 44.7 25.2 44.8C25.2 45.1 25.2 45.4 25.3 45.8C26 45.6 26.4 45.7 26.6 46.1C26.8 46.5 26.8 46.9 26.5 47.2C26.2 47.5 25.8 47.6 25.4 47.5C25 47.3 24.8 46.9 24.9 46.4C24.5 46.5 24.2 46.5 23.8 46.6C24 47.1 23.9 47.6 23.5 47.9C23.2 48.2 22.8 48.2 22.4 48C21.9 47.7 21.8 47.3 21.8 46.8C21.5 46.8 21.2 46.9 20.8 46.9C21 47.3 20.9 47.8 20.7 48.2L20.1 48.5C19.4 48.7 18.7 48.2 18.7 47.4V47.2C18.4 47.2 18 47.3 17.7 47.3C17.9 47.8 17.9 48.2 17.5 48.6C17.2 48.9 16.8 49 16.4 48.8C15.9 48.6 15.7 48.1 15.8 47.6C15.4 47.6 15 47.6 14.7 47.7C14.9 48.3 14.8 48.7 14.4 49C14.1 49.2 13.6 49.2 13.3 49C12.9 48.7 12.8 48.3 13 47.7C12.6 48 12.1 48.2 11.7 47.9C11.2 47.6 11.1 47.2 11.2 46.7C10.7 46.9 10.3 46.9 9.90001 46.6C9.50001 46.3 9.40001 45.9 9.50001 45.4C8.30001 45.6 7.70001 45.2 7.80001 44C7.30001 44.2 6.90001 44.2 6.50001 43.9C6.10001 43.6 6.00001 43.1 6.10001 42.6C5.60001 42.8 5.20001 42.8 4.80001 42.5C4.40001 42.1 4.40001 41.7 4.60001 41.2C4.10001 41.5 3.60001 41.6 3.20001 41.2C2.90001 40.9 2.80001 40.6 3.00001 40.2C3.20001 39.6 3.60001 39.5 4.20001 39.5C4.20001 39.1 4.10001 38.8 4.10001 38.5H4.00001C3.50001 38.6 3.10001 38.6 2.80001 38.2C2.50001 37.8 2.50001 37.3 2.70001 36.9C2.70001 36.9 2.70001 36.8 2.80001 36.8C3.10001 36.7 3.50001 36.5 3.90001 36.4C3.90001 36.2 3.80001 35.9 3.80001 35.7C2.90001 35.2 2.60001 35.2 2.20001 35.1ZM28.7 27.1C29.1 27 29.5 26.8 29.8 26.7C29.8 26.5 29.7 26.2 29.7 25.9C29.2 26.1 28.8 25.9 28.4 25.7C28.3 25.3 28.1 24.9 28 24.5C27 24.8 26.4 24.3 26.4 23.1C25.4 23.4 24.9 23 24.7 21.9C23.7 22.1 23.1 21.7 23 20.7H21.9C22.1 21.3 22.1 21.7 21.7 22C21.4 22.2 20.9 22.3 20.6 22C20.2 21.8 20.1 21.3 20.2 20.9C20.4 20.5 20.7 20.3 21.4 20.3C21.3 20 21.3 19.6 21.2 19.3C21 19.3 20.7 19.3 20.5 19.4C20.6 20.3 20.3 20.9 19.7 21C19 21.1 18.6 20.7 18.5 19.7C18.2 19.7 17.8 19.8 17.5 19.8C17.7 20.3 17.6 20.7 17.3 21C17 21.3 16.6 21.3 16.2 21.2C15.7 21 15.6 20.5 15.6 20.1C15.2 20.1 14.9 20.2 14.5 20.2C14.7 21 14.5 21.6 13.8 21.7C13.6 21.8 13.2 21.7 13 21.6C12.5 21.4 12.4 20.9 12.5 20.5C12.2 20.5 12 20.6 11.7 20.6V21.6C12.3 21.4 12.7 21.4 13 21.8C13.3 22.1 13.3 22.6 13 22.9C12.8 23.2 12.3 23.4 11.9 23.2C11.7 23.1 11.5 22.9 11.4 22.7C11.3 22.5 11.4 22.2 11.3 22.1C11 22.2 10.6 22.3 10.2 22.3C10.4 22.7 10.3 23.1 10 23.5C9.70001 23.9 9.20001 23.9 8.70001 23.8C9.00001 24.3 9.00001 24.7 8.70001 25.2C8.40001 25.6 7.90001 25.6 7.40001 25.5C7.60001 25.9 7.70001 26.4 7.40001 26.8C7.10001 27.2 6.70001 27.3 6.30001 27.3C6.50001 28.4 6.20001 28.9 5.10001 29V30C5.60001 29.8 6.10001 29.8 6.40001 30.2C6.70001 30.5 6.70001 30.9 6.60001 31.3C6.30001 31.9 5.90001 32 5.40001 31.9V33.2C5.90001 32.9 6.30001 32.9 6.70001 33.2C7.00001 33.5 7.10001 33.9 6.90001 34.3C6.80001 34.5 6.60001 34.7 6.30001 34.8C6.10001 34.9 5.80001 34.9 5.60001 34.9C5.70001 35.3 5.70001 35.6 5.80001 36C6.40001 35.8 6.80001 35.8 7.10001 36.2C7.40001 36.5 7.40001 37 7.20001 37.4C7.00001 37.8 6.60001 38 5.90001 37.9C6.00001 38.2 6.10001 38.5 6.20001 38.9C7.20001 38.7 7.70001 39.1 7.80001 40.3C8.90001 39.9 9.60001 40.5 9.40001 41.7C10.3 41.3 11.2 41.7 11.1 43C11.5 42.8 12 42.8 12.4 43.1C12.8 43.4 12.8 43.9 12.8 44.4C13.3 44.2 13.7 44.1 14.1 44.4C14.5 44.7 14.6 45.1 14.6 45.5C14.9 45.5 15.2 45.5 15.4 45.4C15.2 44.6 15.5 43.9 16.2 43.9C16.5 43.9 16.8 44 17 44.1C17.4 44.3 17.4 44.7 17.4 45.1C17.8 45.1 18.2 45.1 18.5 45C18.3 44.6 18.3 44.2 18.6 43.8C18.9 43.5 19.2 43.4 19.6 43.5C20.2 43.7 20.3 44.2 20.3 44.7C20.7 44.7 21 44.6 21.4 44.6C21.2 44.1 21.2 43.7 21.7 43.3C22 43 22.4 42.9 22.8 43.1C23.3 43.4 23.5 43.8 23.4 44.4C23.7 44.3 24 44.3 24.2 44.3V43.2C23.6 43.4 23.2 43.4 22.9 43C22.7 42.7 22.6 42.2 22.9 41.9C23.1 41.6 23.6 41.4 23.9 41.5C24.5 41.7 24.6 42.2 24.5 42.7C24.9 42.6 25.2 42.6 25.6 42.5C25.3 41.5 25.9 40.9 27 40.9C26.8 40.5 26.8 40 27.2 39.7C27.5 39.3 28 39.3 28.5 39.4C28.2 38.9 28.2 38.5 28.5 38.1C28.8 37.7 29.2 37.6 29.6 37.6V36.6C29 36.8 28.6 36.7 28.3 36.4C28.1 36.1 28 35.6 28.3 35.3C28.5 35 29 34.8 29.4 34.9C30 35.1 30.1 35.6 30.1 36.1C30.4 36 30.7 35.9 31 35.9V35.1C30.1 35.3 29.5 35 29.4 34.3C29.3 33.6 29.8 33.1 30.7 33.1C30.7 32.8 30.6 32.4 30.6 32.1C30.1 32.3 29.7 32.3 29.3 31.9C29 31.6 28.9 31.1 29.1 30.8C29.4 30.2 29.9 30.1 30.4 30.2C30.3 29.8 30.3 29.5 30.2 29.1C30.2 29.1 30.1 29.1 30 29.2C29.2 29.4 28.5 28.8 28.6 28C28.5 27.5 28.6 27.3 28.7 27.1ZM8.90001 43V42.1C8.50001 42.1 8.20001 42.2 7.80001 42.2C7.90001 42.5 7.90001 42.8 8.00001 43.2C8.30001 43.1 8.60001 43 8.90001 43ZM24.4 19.7V18.7C24.1 18.7 23.7 18.8 23.4 18.8C23.5 19.1 23.5 19.4 23.6 19.7C23.8 19.8 24.1 19.8 24.4 19.7ZM3.90001 33.7C3.90001 33.9 4.00001 34.2 4.00001 34.4H5.00001V33.4C4.60001 33.5 4.30001 33.6 3.90001 33.7ZM19.2 46.4C19.4 46.4 19.7 46.3 20 46.3C20 46 19.9 45.6 19.9 45.3H19.1C19.1 45.7 19.1 46.1 19.2 46.4ZM27.5 43.9C27.4 43.6 27.4 43.3 27.3 42.9C27.1 42.9 26.8 43 26.5 43V44C26.8 44 27.1 44 27.5 43.9ZM11.5 45.8C11.8 45.8 12.1 45.7 12.3 45.7C12.3 45.4 12.2 45 12.2 44.7C11.9 44.7 11.6 44.8 11.3 44.8C11.4 45.2 11.4 45.5 11.5 45.8ZM13.8 46.2H13V47.2C13.3 47.1 13.7 47.1 14 47C14 46.8 13.9 46.5 13.8 46.2ZM27.8 22.4V21.4C27.5 21.5 27.1 21.6 26.8 21.6C26.8 21.9 26.9 22.2 26.9 22.4C27.2 22.5 27.5 22.4 27.8 22.4ZM6.30001 41V41.8C6.70001 41.8 7.00001 41.7 7.30001 41.7C7.20001 41.4 7.20001 41.1 7.10001 40.8C6.90001 40.9 6.60001 41 6.30001 41ZM5.80001 25.1C6.10001 25.1 6.50001 25.1 6.70001 25C6.70001 24.7 6.60001 24.4 6.60001 24.1C6.30001 24.1 6.00001 24.2 5.70001 24.2C5.80001 24.5 5.80001 24.8 5.80001 25.1ZM29.1 40.5C29.4 40.5 29.7 40.5 30 40.4C30 40.1 29.9 39.8 29.9 39.5C29.6 39.5 29.2 39.6 28.9 39.6C29 40 29.1 40.3 29.1 40.5ZM5.30001 37.4C5.30001 37.1 5.20001 36.8 5.20001 36.5C4.90001 36.6 4.60001 36.6 4.20001 36.7C4.20001 36.9 4.20001 37.2 4.30001 37.4C4.70001 37.4 5.00001 37.4 5.30001 37.4ZM4.40001 30.5C4.10001 30.5 3.70001 30.6 3.40001 30.6C3.40001 30.9 3.50001 31.1 3.50001 31.4C3.80001 31.4 4.20001 31.4 4.50001 31.3C4.50001 31.1 4.50001 30.8 4.40001 30.5ZM30.9 31.2C31.2 31.1 31.5 31.1 31.9 31C31.9 30.8 31.8 30.5 31.8 30.3H30.8C30.8 30.6 30.9 30.9 30.9 31.2ZM12.7 18.7C12.7 19 12.8 19.3 12.9 19.6C13.2 19.6 13.4 19.5 13.6 19.5V18.5C13.3 18.6 13 18.7 12.7 18.7ZM22.9 45C22.6 45 22.3 45.1 22.1 45.1C22.1 45.4 22.2 45.7 22.2 46.1C22.5 46.1 22.7 46.1 23 46C22.9 45.6 22.9 45.3 22.9 45ZM32.3 34.1C32.3 33.8 32.2 33.5 32.2 33.3C31.9 33.3 31.6 33.4 31.2 33.4C31.2 33.7 31.2 33.9 31.3 34.2C31.7 34.1 32 34.1 32.3 34.1ZM31.2 37.9C31 37.9 30.7 38 30.4 38.1V38.9C30.7 38.9 31.1 38.9 31.3 38.8C31.3 38.6 31.3 38.2 31.2 37.9ZM29.5 22.8C29.2 22.9 28.8 22.9 28.5 23C28.5 23.2 28.6 23.5 28.7 23.8C29 23.8 29.3 23.7 29.6 23.7C29.5 23.4 29.5 23.1 29.5 22.8ZM9.70001 43.6C9.70001 43.9 9.80001 44.2 9.80001 44.5C10.1 44.5 10.4 44.4 10.6 44.4C10.6 44.1 10.5 43.8 10.5 43.5C10.2 43.5 10 43.5 9.70001 43.6ZM5.30001 26.6C5.30001 26.3 5.30001 26 5.20001 25.8C4.90001 25.8 4.50001 25.8 4.20001 25.9C4.30001 26.2 4.30001 26.5 4.40001 26.8C4.80001 26.7 5.10001 26.7 5.30001 26.6ZM7.10001 22.5C7.10001 22.8 7.20001 23.1 7.20001 23.4C7.50001 23.4 7.80001 23.3 8.10001 23.3C8.00001 23 8.00001 22.7 7.90001 22.4C7.60001 22.5 7.40001 22.5 7.10001 22.5ZM8.40001 20.8C8.40001 21.1 8.50001 21.4 8.50001 21.7C8.80001 21.7 9.10001 21.6 9.30001 21.6C9.30001 21.3 9.20001 21 9.20001 20.7C8.90001 20.8 8.60001 20.8 8.40001 20.8ZM4.50001 39.7V40.6C4.80001 40.5 5.10001 40.4 5.50001 40.4C5.50001 40.2 5.40001 39.9 5.40001 39.7C5.10001 39.7 4.80001 39.7 4.50001 39.7ZM18.9 19C19.2 19 19.4 18.9 19.7 18.9C19.7 18.6 19.6 18.3 19.6 18C19.3 18 19.1 18.1 18.8 18.1C18.8 18.3 18.8 18.6 18.9 19ZM30.6 28.1C30.9 28.1 31.2 28 31.6 28C31.6 27.8 31.5 27.5 31.5 27.3C31.2 27.3 30.8 27.4 30.5 27.4C30.5 27.6 30.5 27.9 30.6 28.1ZM16.8 45.7C16.6 45.7 16.3 45.8 16.1 45.8C16.1 46.1 16.2 46.4 16.2 46.8C16.5 46.8 16.7 46.7 16.9 46.7C16.9 46.4 16.8 46 16.8 45.7ZM28.5 41.3C28.2 41.3 28 41.4 27.7 41.4C27.7 41.7 27.8 42 27.8 42.2C28.1 42.2 28.4 42.1 28.6 42.1C28.6 41.9 28.6 41.6 28.5 41.3ZM15.8 18.4C15.8 18.7 15.9 19 15.9 19.3C16.2 19.3 16.4 19.2 16.6 19.2C16.6 18.9 16.5 18.6 16.5 18.3C16.3 18.4 16 18.4 15.8 18.4ZM25.1 20.3C25.1 20.6 25.2 20.8 25.2 21.1C25.5 21.1 25.7 21 26 21C26 20.7 25.9 20.4 25.9 20.1C25.7 20.2 25.4 20.3 25.1 20.3Z" fill="#F69220"></path>
</svg></svg></g></g><defs><clipPath id="SvgjsClipPath1033"><rect width="1000" height="1000" x="0" y="0" rx="350" ry="350"></rect></clipPath></defs></svg>